# Blender 5.0.1
# www.blender.org
o 1
v -1.000000 -1.000000 -7.985585
v 1.000000 -1.000000 1.000000
v 0.779995 0.948821 1.011938
v -0.740737 0.811275 -7.968789
v -0.561525 0.969759 -0.646598
v -1.134514 -0.012618 -2.389178
v -0.856237 0.874332 -4.439428
v -0.763810 -0.866860 0.944652
v 0.664857 0.922879 -7.956446
v 1.058820 -0.937780 -8.027257
v -0.109796 -0.332550 0.980375
v -0.794162 -0.377802 4.577005
v 0.113735 -0.317748 0.980375
v -0.583499 -0.371610 4.501059
v 0.238319 -0.503930 0.980375
v -0.458915 -0.557792 4.501059
v 0.139373 -0.704914 0.980375
v -0.544993 -0.750166 4.577005
v -0.084158 -0.719717 0.980375
v -0.755657 -0.756358 4.652951
v -0.208742 -0.533534 0.980375
v -0.880241 -0.570176 4.652951
v -0.822527 -0.396782 2.352705
v -0.600365 -0.382896 2.334904
v -0.475780 -0.569078 2.334904
v -0.573358 -0.769146 2.352705
v -0.795520 -0.783032 2.370506
v -0.920104 -0.596850 2.370506
v 0.615614 0.433563 0.997265
v 0.966034 0.574087 3.984284
v 0.809621 0.321553 0.997265
v 1.144558 0.462077 3.908338
v 0.809621 0.097532 0.997265
v 1.144558 0.238056 3.908338
v 0.615614 -0.014478 0.997265
v 0.966034 0.126046 3.984284
v 0.421607 0.097532 0.997265
v 0.787509 0.238056 4.060230
v 0.421607 0.321553 0.997265
v 0.787509 0.462077 4.060230
v 0.576272 0.574087 3.114776
v 0.768632 0.462077 3.096974
v 0.768632 0.238056 3.096974
v 0.576272 0.126046 3.114776
v 0.383912 0.238056 3.132576
v 0.383912 0.462077 3.132576
v -1.767391 0.487020 -2.801440
v -1.568951 0.458490 -2.901404
v -1.449044 0.273496 -2.861595
v -1.527576 0.117033 -2.721820
v -1.726016 0.145562 -2.621856
v -1.845923 0.330556 -2.661665
v -1.657237 0.471889 -2.249533
v -1.498787 0.483610 -2.318268
v -1.403928 0.314646 -2.348027
v -1.468275 0.117025 -2.276669
v -1.693234 0.074948 -2.192470
v -1.754245 0.311321 -2.219073
v 0.340307 -0.061477 -10.236644
v 0.190213 -0.030209 -7.981657
v 0.202201 0.095618 -10.316852
v 0.050095 0.143752 -7.998682
v 0.279974 0.300894 -10.361555
v 0.125575 0.352042 -7.965463
v 0.495851 0.349075 -10.326051
v 0.341173 0.386370 -7.915218
v 0.633957 0.191980 -10.245843
v 0.481290 0.212409 -7.898192
v 0.556185 -0.013296 -10.201139
v 0.405810 0.004120 -7.931412
v 0.299813 0.374388 -9.033575
v 0.154252 0.542795 -9.051376
v 0.227002 0.754674 -9.051376
v 0.445311 0.798146 -9.033575
v 0.590871 0.629738 -9.015775
v 0.518122 0.417859 -9.015775
v -0.678869 0.844610 -1.540842
v -0.734972 0.836176 -1.905043
v -0.794874 0.662348 -2.011140
v -0.851097 0.519881 -1.856497
v -0.807509 0.583181 -1.643157
v -0.759726 0.694141 -1.703053
vn -0.6533 0.5356 0.5352
vn -0.0321 -0.0097 0.9994
vn -0.0186 -0.9998 0.0041
vn -0.9992 0.0358 0.0185
vn -0.0096 0.0235 -0.9997
vn -0.9047 0.4218 0.0597
vn -0.0289 0.9995 -0.0114
vn 0.9872 0.1592 -0.0028
vn -0.0477 0.9988 -0.0064
vn 0.8311 0.5561 -0.0094
vn 0.9051 -0.4251 -0.0064
vn 0.0484 -0.9988 0.0094
vn 0.3253 0.2177 0.9202
vn -0.8309 -0.5560 0.0210
vn -0.9048 0.4257 0.0094
vn 0.4654 0.8593 -0.2120
vn -0.8267 0.3870 -0.4083
vn -0.7577 -0.5070 -0.4108
vn 0.0637 -0.9979 -0.0132
vn 0.8248 -0.3858 0.4133
vn 0.7536 0.5043 0.4216
vn -0.0637 0.9979 0.0140
vn 0.9073 -0.0000 -0.4204
vn 0.4654 -0.8593 -0.2120
vn -0.4672 -0.8598 0.2062
vn 0.3915 -0.0000 0.9202
vn -0.9170 -0.0000 0.3990
vn -0.4672 0.8598 0.2062
vn -0.5028 0.8619 -0.0661
vn -0.9998 -0.0000 -0.0177
vn -0.4994 -0.8651 0.0481
vn 0.5028 -0.8618 0.0670
vn 0.9998 -0.0000 0.0195
vn 0.4994 0.8651 -0.0481
vn -0.5049 -0.0755 0.8599
vn -0.8146 0.5500 0.1843
vn -0.9202 -0.3806 0.0921
vn -0.0030 -0.9968 -0.0802
vn 0.9066 -0.4141 -0.0810
vn 0.8502 0.5125 -0.1203
vn 0.0399 0.9991 -0.0151
vn -0.7136 -0.6272 -0.3120
vn -0.9433 0.3302 0.0331
vn -0.2157 0.9223 0.3207
vn 0.7167 0.6287 0.3016
vn -0.2146 -0.0775 0.9736
vn 0.9434 -0.3305 -0.0297
vn 0.2165 -0.9190 -0.3295
vn 0.1538 -0.9272 0.3416
vn 0.9353 -0.3217 0.1472
vn 0.7678 0.6128 -0.1869
vn -0.1562 0.9312 -0.3293
vn -0.9351 0.3214 -0.1491
vn -0.7678 -0.6115 0.1912
vn -0.5487 0.1823 0.8159
vn 0.3580 -0.8902 0.2817
vn 0.6553 -0.5653 -0.5010
vn 0.2879 0.3781 -0.8799
vn -0.3424 0.9367 -0.0738
vn -0.4516 -0.4576 -0.7659
vn 0.2173 -0.2856 -0.9334
vt 0.189517 0.016410
vt 0.376101 0.000000
vt 0.362266 0.159929
vt 0.832455 0.405613
vt 0.700728 0.309689
vt 0.832455 0.186132
vt 0.184810 0.007808
vt 0.189517 0.830533
vt 0.000000 0.830533
vt 0.023999 0.000000
vt 0.267893 0.324195
vt 0.356031 0.510333
vt 0.357977 0.834201
vt 0.189517 0.838805
vt 0.700728 0.030684
vt 0.873220 0.000000
vt 0.873220 0.186132
vt 0.707223 0.158560
vt 0.556511 0.503783
vt 0.579715 0.154057
vt 0.700728 -0.000000
vt 0.700728 0.825931
vt 0.570886 0.828758
vt 0.381489 0.824106
vt 0.376101 0.000000
vt 0.556511 0.000807
vt 0.556511 0.828942
vt 0.761627 0.606002
vt 0.804236 0.405613
vt 0.821884 0.416270
vt 0.781412 0.611612
vt 0.955176 0.610703
vt 0.958150 0.411747
vt 0.976944 0.411400
vt 0.973970 0.610356
vt 0.993252 0.405613
vt 0.990702 0.610010
vt 0.741801 0.616813
vt 0.700728 0.416144
vt 0.718455 0.405613
vt 0.761627 0.611351
vt 0.428631 0.828942
vt 0.446062 0.837370
vt 0.446062 0.856834
vt 0.428631 0.867871
vt 0.411200 0.859443
vt 0.411200 0.839979
vt 0.979520 0.126547
vt 0.967762 0.336292
vt 0.952599 0.334843
vt 0.964358 0.125098
vt 0.934179 0.327385
vt 0.944852 0.123000
vt 0.891746 0.088386
vt 0.917869 0.004727
vt 0.934179 0.010089
vt 0.908688 0.088283
vt 0.953856 0.000461
vt 0.934179 0.000000
vt 0.969019 0.001909
vt 0.700728 0.753239
vt 0.720992 0.749364
vt 0.976487 0.729354
vt 0.993252 0.730654
vt 0.957694 0.729701
vt 0.801650 0.742776
vt 0.821884 0.746803
vt 0.895290 0.767106
vt 0.903131 0.690018
vt 0.923474 0.690878
vt 0.915633 0.767966
vt 0.847379 0.493871
vt 0.821884 0.415725
vt 0.839772 0.411090
vt 0.865899 0.494698
vt 0.856091 0.405613
vt 0.882850 0.494682
vt 0.446062 0.856660
vt 0.446062 0.837338
vt 0.463563 0.828942
vt 0.481064 0.839868
vt 0.481064 0.859190
vt 0.463563 0.867586
vt 0.979520 0.088724
vt 0.979635 0.001103
vt 1.000000 0.000000
vt 0.999886 0.087620
vt 0.873220 0.089123
vt 0.899974 -0.000000
vt 0.898796 0.284378
vt 0.917280 0.281996
vt 0.979635 0.285127
vt 1.000000 0.284023
vt 0.840362 0.688388
vt 0.857269 0.690018
vt 0.821884 0.685917
vt 0.903131 0.960016
vt 0.923474 0.960876
vt 0.934179 0.280248
vt 0.894975 0.394822
vt 0.880036 0.297683
vt 0.888241 0.284378
vt 0.903506 0.379777
vt 0.571891 0.841271
vt 0.572491 0.882467
vt 0.556511 0.880101
vt 0.556511 0.828758
vt 0.587072 0.845672
vt 0.593167 0.885365
vt 0.700728 0.872707
vt 0.726893 0.840719
vt 0.746834 0.850761
vt 0.719851 0.879463
vt 0.611866 0.881783
vt 0.609886 0.834196
vt 0.627012 0.828758
vt 0.625183 0.870031
vt 0.593167 0.885679
vt 0.593167 0.831583
vt 0.787126 0.902094
vt 0.761627 0.857063
vt 0.776853 0.852330
vt 0.806841 0.897408
vt 0.916461 0.527786
vt 0.955176 0.624114
vt 0.941287 0.621713
vt 0.903154 0.525287
vt 0.921283 0.625071
vt 0.882850 0.525575
vt 0.929534 0.793203
vt 0.923474 0.693419
vt 0.943772 0.690018
vt 0.949963 0.792786
vt 0.821884 0.792776
vt 0.859617 0.692081
vt 0.877564 0.690018
vt 0.839409 0.790586
vt 0.662551 0.869023
vt 0.644710 0.858738
vt 0.644710 0.838605
vt 0.662551 0.828758
vt 0.680392 0.839043
vt 0.680392 0.859175
vt 0.895290 0.694214
vt 0.857559 0.791725
vt 0.832455 0.285441
vt 0.839379 0.186132
vt 0.859688 0.189492
vt 0.852887 0.285825
vt 0.839337 0.395610
vt 0.859688 0.397647
vt 0.877740 0.904441
vt 0.895290 0.901494
vt 0.861249 0.912338
vt 0.923474 0.914612
vt 0.943817 0.912547
vt 0.942774 0.409406
vt 0.922985 0.405613
vt 0.955176 0.417597
vt 0.873220 0.400620
vt 0.873220 0.306532
vt 0.715073 0.770051
vt 0.726472 0.753239
vt 0.717468 0.839452
vt 0.700728 0.774977
vt 0.627012 0.911539
vt 0.632136 0.828758
vt 0.643384 0.842599
vt 0.644710 0.911539
vt 0.788937 0.746803
vt 0.806841 0.775644
vt 0.510072 0.831159
vt 0.510072 0.847856
vt 0.495568 0.862336
vt 0.481064 0.860119
vt 0.481064 0.843422
vt 0.495568 0.828942
vt 0.376101 0.857787
vt 0.376101 0.837943
vt 0.393651 0.828942
vt 0.411200 0.839785
vt 0.411200 0.859629
vt 0.393651 0.868630
s 0
f 8/1/1 3/2/1 5/3/1
f 8/4/2 2/5/2 3/6/2
f 8/7/3 1/8/3 10/9/3 2/10/3
f 6/11/4 7/12/4 4/13/4 1/14/4 8/1/4 5/3/4
f 9/15/5 10/16/5 1/17/5 4/18/5
f 6/11/6 5/3/6 7/12/6
f 7/19/7 5/20/7 3/21/7 9/22/7 4/23/7
f 9/24/8 3/25/8 2/26/8 10/27/8
f 23/28/9 12/29/9 14/30/9 24/31/9
f 24/32/10 14/33/10 16/34/10 25/35/10
f 25/35/11 16/34/11 18/36/11 26/37/11
f 26/38/12 18/39/12 20/40/12 27/41/12
f 14/42/13 12/43/13 22/44/13 20/45/13 18/46/13 16/47/13
f 27/48/14 20/49/14 22/50/14 28/51/14
f 28/51/15 22/50/15 12/52/15 23/53/15
f 41/54/16 30/55/16 32/56/16 42/57/16
f 21/58/17 28/51/17 23/53/17 11/59/17
f 19/60/18 27/48/18 28/51/18 21/58/18
f 17/61/19 26/38/19 27/41/19 19/62/19
f 15/63/20 25/35/20 26/37/20 17/64/20
f 13/65/21 24/32/21 25/35/21 15/63/21
f 11/66/22 23/28/22 24/31/22 13/67/22
f 42/68/23 32/69/23 34/70/23 43/71/23
f 43/72/24 34/73/24 36/74/24 44/75/24
f 44/75/25 36/74/25 38/76/25 45/77/25
f 32/78/26 30/79/26 40/80/26 38/81/26 36/82/26 34/83/26
f 45/84/27 38/85/27 40/86/27 46/87/27
f 46/88/28 40/89/28 30/55/28 41/54/28
f 39/90/29 46/88/29 41/54/29 29/91/29
f 37/92/30 45/84/30 46/87/30 39/93/30
f 35/94/31 44/75/31 45/77/31 37/95/31
f 33/96/32 43/72/32 44/75/32 35/94/32
f 31/97/33 42/68/33 43/71/33 33/98/33
f 29/91/34 41/54/34 42/57/34 31/99/34
f 58/100/35 82/101/35 77/102/35 53/103/35
f 52/104/36 58/105/36 53/106/36 47/107/36
f 51/108/37 57/109/37 58/105/37 52/104/37
f 50/110/38 56/111/38 57/112/38 51/113/38
f 49/114/39 55/115/39 56/116/39 50/117/39
f 48/118/40 54/119/40 55/115/40 49/114/40
f 47/120/41 53/121/41 54/122/41 48/123/41
f 71/124/42 60/125/42 62/126/42 72/127/42
f 72/127/43 62/126/43 64/128/43 73/129/43
f 73/130/44 64/131/44 66/132/44 74/133/44
f 74/134/45 66/135/45 68/136/45 75/137/45
f 62/138/46 60/139/46 70/140/46 68/141/46 66/142/46 64/143/46
f 75/137/47 68/136/47 70/144/47 76/145/47
f 76/146/48 70/147/48 60/148/48 71/149/48
f 69/150/49 76/146/49 71/149/49 59/151/49
f 67/152/50 75/137/50 76/145/50 69/153/50
f 65/154/51 74/134/51 75/137/51 67/152/51
f 63/155/52 73/130/52 74/133/52 65/156/52
f 61/157/53 72/127/53 73/129/53 63/158/53
f 59/159/54 71/124/54 72/127/54 61/157/54
f 57/160/55 81/161/55 82/101/55 58/100/55
f 56/111/56 80/162/56 81/163/56 57/112/56
f 55/164/57 79/165/57 80/162/57 56/111/57
f 54/166/58 78/167/58 79/168/58 55/169/58
f 53/121/59 77/170/59 78/171/59 54/122/59
f 47/172/60 48/173/60 49/174/60 50/175/60 51/176/60 52/177/60
f 59/178/61 61/179/61 63/180/61 65/181/61 67/182/61 69/183/61
