# Blender 5.0.1
# www.blender.org
o 3
v -18.103876 0.881218 1.372513
v -18.361444 0.881218 2.893477
v -17.772902 0.690129 1.372513
v -18.030470 0.690129 2.893477
v -17.772902 0.307951 1.372513
v -18.030470 0.307951 2.893477
v -18.103876 0.116863 1.372513
v -18.361444 0.116863 2.893477
v -18.434851 0.307951 1.372513
v -18.692421 0.307951 2.893477
v -18.434851 0.690129 1.372513
v -18.692421 0.690129 2.893477
v -17.344547 0.690129 4.251784
v -17.637032 0.881218 4.406696
v -17.344547 0.307951 4.251784
v -17.637032 0.116863 4.406696
v -17.929516 0.307951 4.561608
v -17.929516 0.690129 4.561608
v -16.869562 0.116863 1.590113
v -15.612361 0.116863 2.423220
v -17.059959 0.307952 1.860841
v -15.802758 0.307952 2.693948
v -17.059959 0.690129 1.860841
v -15.802758 0.690129 2.693948
v -16.869562 0.881218 1.590113
v -15.612361 0.881218 2.423220
v -16.679165 0.690129 1.319385
v -15.421964 0.690129 2.152493
v -16.679165 0.307952 1.319385
v -15.421964 0.307952 2.152493
v -15.987958 0.332419 5.487632
v -15.701699 0.165798 5.524293
v -15.987958 0.665662 5.487632
v -15.701699 0.832283 5.524293
v -15.374883 0.496552 5.567138
v -15.686702 0.690129 3.456141
v -15.388916 0.881218 3.576550
v -15.091130 0.307952 3.696960
v -15.388916 0.116863 3.576550
v -15.091130 0.690129 3.696960
v -15.686702 0.307952 3.456141
v -17.824539 0.881218 -5.089723
v -18.224756 0.881218 -3.263086
v -17.525608 0.690129 -4.947651
v -17.893780 0.690129 -3.263086
v -17.525608 0.307951 -4.947651
v -17.893780 0.307951 -3.263086
v -17.824539 0.116863 -5.089723
v -18.224756 0.116863 -3.263086
v -18.123470 0.307951 -5.231796
v -18.555731 0.307951 -3.263086
v -18.123470 0.690129 -5.231796
v -18.555731 0.690129 -3.263086
v -17.676556 0.690129 -1.558351
v -17.969040 0.881218 -1.403439
v -17.676556 0.307951 -1.558351
v -17.969040 0.116863 -1.403439
v -18.261524 0.307951 -1.248527
v -18.261524 0.690129 -1.248527
v -18.109833 0.881218 -7.127539
v -17.783077 0.690129 -7.180221
v -17.783077 0.307951 -7.180221
v -18.109833 0.116863 -7.127539
v -18.436590 0.307951 -7.074858
v -18.436590 0.690129 -7.074858
v -19.252275 1.108047 -1.609915
v -18.889744 0.992923 1.668581
v -15.344810 0.946602 0.410091
v -19.442808 0.225540 1.087070
v -17.573185 0.825305 -2.461257
v -19.545191 1.046072 -0.445719
v -15.393311 0.192768 -0.984973
v -19.451202 0.359210 -0.344193
v -15.378710 0.895409 -0.896377
v -17.641642 -0.000831 0.323166
v -18.808798 0.168151 1.885294
v -15.675018 0.964771 1.898246
v -17.569384 1.039155 2.372372
v -15.372875 0.099068 0.585279
v -15.642522 -0.113567 1.890262
v -17.546953 -0.000651 -2.526977
v -17.451042 1.004739 2.417082
v -16.325947 0.123208 -1.812006
v -16.486368 0.959366 -1.905903
v -19.423964 0.374291 -1.745715
v -17.595219 0.005495 2.440650
v -17.657467 0.931808 -2.420800
v -17.458115 0.972210 -0.052903
v -17.458061 0.981872 -1.188725
v -15.355107 0.969814 0.538952
v -19.415134 0.870669 0.591894
v -19.435795 0.890746 0.480564
v -17.590273 0.958238 -0.066855
v -17.593468 0.960885 0.074117
v -17.464659 0.954232 0.077030
v -17.582256 0.990604 -1.067422
vn 0.9887 -0.0000 0.1500
vn 0.9780 0.0279 0.2066
vn -0.0629 0.9912 -0.1163
vn 0.1277 -0.9900 -0.0607
vn 0.6677 0.0607 -0.7420
vn 0.0386 0.9987 0.0326
vn 0.1552 0.9836 0.0914
vn -0.0087 -0.9981 -0.0607
vn -0.1901 -0.9817 -0.0143
vn -0.1620 -0.9826 -0.0908
vn -0.3345 0.0704 0.9397
vn -0.0551 0.9983 -0.0200
vn 0.7690 0.6353 -0.0703
vn 0.9860 -0.0000 0.1670
vn 0.4982 -0.8629 0.0844
vn -0.4982 -0.8629 -0.0844
vn 0.4667 -0.8542 -0.2292
vn -0.9860 -0.0000 -0.1670
vn -0.4982 0.8629 -0.0844
vn 0.9769 -0.0000 0.2135
vn 0.4680 -0.0000 0.8837
vn -0.4696 0.8551 0.2196
vn -0.4696 -0.8551 0.2196
vn 0.8926 -0.0000 -0.4508
vn -0.9094 -0.0000 0.4159
vn 0.4667 0.8542 -0.2292
vn -0.2763 -0.8659 0.4169
vn -0.5524 -0.0000 0.8336
vn -0.2763 0.8659 0.4169
vn 0.2763 0.8659 -0.4169
vn -0.5090 0.8585 -0.0627
vn 0.5524 -0.0000 -0.8336
vn 0.2763 -0.8659 -0.4169
vn 0.4976 0.8606 0.1089
vn -0.1283 -0.0000 0.9917
vn 0.4982 0.8629 0.0844
vn 0.6120 -0.7776 0.1440
vn 0.6154 0.7747 0.1454
vn -0.9892 -0.0000 -0.1467
vn -0.5090 -0.8585 -0.0627
vn -0.5928 -0.7985 0.1051
vn 0.9778 -0.0000 -0.2095
vn -0.9886 -0.0000 0.1505
vn 0.5886 0.7994 -0.1209
vn 0.5886 -0.7994 -0.1209
vn -0.5928 0.7985 0.1051
vn 0.4976 -0.8606 0.1089
vn -0.4975 -0.8606 -0.1091
vn 0.5092 -0.8580 -0.0676
vn -0.9767 -0.0000 -0.2145
vn -0.4975 0.8606 -0.1091
vn -0.5082 0.8582 0.0721
vn -0.5082 -0.8582 0.0721
vn 0.9920 -0.0000 -0.1264
vn -0.9895 -0.0000 0.1445
vn 0.5092 0.8580 -0.0676
vn 0.9934 -0.0000 -0.1146
vn -0.9859 -0.0000 0.1675
vn 0.5270 0.8472 -0.0670
vn 0.5270 -0.8472 -0.0670
vn -0.5280 0.8453 0.0814
vn -0.5280 -0.8453 0.0814
vn -0.4370 0.1237 0.8909
vn -0.9909 0.0571 -0.1219
vn 0.4785 0.0389 -0.8772
vn 0.2703 -0.0163 0.9626
vn 0.9734 -0.0077 0.2291
vn -0.9982 -0.0305 0.0520
vn 0.0157 0.9999 0.0013
vn -0.1985 -0.9801 -0.0067
vn 0.0125 0.9864 0.1639
vn -0.8338 0.2159 0.5081
vn -0.0714 0.9944 -0.0781
vn 0.9995 -0.0280 -0.0144
vn 0.0991 -0.9951 0.0032
vn 0.0473 -0.9985 -0.0289
vn 0.0253 0.9996 0.0097
vn 0.2804 0.0013 0.9599
vn 0.0952 0.9946 -0.0414
vn -0.1271 -0.9918 0.0123
vn -0.0027 0.9998 -0.0216
vn -0.3729 0.0612 -0.9259
vn -0.0316 0.9980 0.0553
vn -0.0169 0.9993 -0.0339
vn -0.4150 0.2585 -0.8723
vn 0.0142 0.9989 -0.0442
vn 0.1692 0.9852 -0.0287
vn -0.0122 0.9997 0.0196
vn 0.0067 0.9998 -0.0198
vn -0.0455 0.9920 -0.1179
vn 0.0158 0.9845 0.1746
vt 0.639320 0.454044
vt 0.623372 0.614944
vt 0.606478 0.454131
vt 0.653957 0.883874
vt 0.738993 0.989227
vt 0.645183 1.000000
vt -0.000111 0.676370
vt 0.003516 0.575141
vt 0.096488 0.627012
vt 0.352375 0.141658
vt 0.347597 0.275601
vt 0.269113 0.065986
vt 0.291553 0.792109
vt 0.275697 0.690334
vt 0.350828 0.685838
vt 0.352375 0.791649
vt 0.656893 0.578281
vt 0.815974 0.545333
vt 0.823433 0.647157
vt 0.684163 0.688762
vt 0.822210 0.749709
vt 0.315662 0.388704
vt 0.150332 0.423659
vt 0.169707 0.273368
vt 0.013128 0.053482
vt 0.006423 0.178128
vt 0.000000 0.301365
vt 0.818792 0.142892
vt 0.817720 0.132219
vt 0.905710 0.136083
vt 0.497038 0.156926
vt 0.505049 0.165396
vt 0.352188 0.228167
vt 0.455715 0.907147
vt 0.450514 0.804094
vt 0.463377 0.907382
vt 0.186576 0.713498
vt 0.219419 0.713435
vt 0.219877 0.844674
vt 0.187035 0.844737
vt 0.418781 0.706918
vt 0.448878 0.710770
vt 0.408127 0.836609
vt 0.378030 0.832757
vt 0.393126 0.702200
vt 0.352375 0.828039
vt 0.420082 0.970652
vt 0.448878 0.960850
vt 0.953490 0.784223
vt 0.920646 0.784247
vt 0.920467 0.653229
vt 0.953312 0.653205
vt 0.852879 0.657712
vt 0.893855 0.783788
vt 0.864409 0.788234
vt 0.823433 0.662158
vt 0.972382 0.291515
vt 0.939540 0.291514
vt 0.939237 0.145974
vt 0.972080 0.145975
vt 0.812086 0.437609
vt 0.838203 0.417758
vt 0.864320 0.426388
vt 0.864320 0.454870
vt 0.838203 0.474721
vt 0.812086 0.466091
vt 0.867025 0.510810
vt 0.895163 0.520014
vt 0.395727 0.979589
vt 0.186576 0.959910
vt 0.219419 0.959846
vt 0.953490 0.510809
vt 0.920646 0.510833
vt 0.920467 0.529832
vt 0.879492 0.653880
vt 0.562297 0.456795
vt 0.479860 0.357352
vt 0.499691 0.339842
vt 0.582129 0.439285
vt 0.738965 0.750249
vt 0.771762 0.750967
vt 0.771762 0.869124
vt 0.738965 0.868407
vt 0.375936 0.683966
vt 0.352375 0.666732
vt 0.435459 0.567748
vt 0.459020 0.584982
vt 0.396776 0.702200
vt 0.479860 0.603216
vt 0.352375 0.341931
vt 0.376188 0.331575
vt 0.449428 0.484504
vt 0.426523 0.502107
vt 0.844829 0.417758
vt 0.812085 0.416940
vt 0.812086 0.294055
vt 0.844829 0.294873
vt 0.524041 0.322090
vt 0.606478 0.421534
vt 0.728818 0.319736
vt 0.704310 0.331079
vt 0.674951 0.173093
vt 0.701821 0.174040
vt 0.796550 0.750249
vt 0.821338 0.764592
vt 0.821338 0.793197
vt 0.796550 0.807460
vt 0.771762 0.779027
vt 0.920467 0.779956
vt 0.500364 0.692487
vt 0.572451 0.539758
vt 0.596098 0.556857
vt 0.524809 0.702420
vt 0.397627 0.322090
vt 0.469610 0.467901
vt 0.250399 0.713435
vt 0.252721 0.888376
vt 0.219877 0.888399
vt 0.221761 0.713455
vt 0.479860 0.682344
vt 0.553322 0.522419
vt 0.606478 0.322177
vt 0.639320 0.322090
vt 0.252721 0.953728
vt 0.219877 0.953751
vt 0.754904 0.337875
vt 0.784133 0.180285
vt 0.812085 0.191022
vt 0.785207 0.336352
vt 0.728818 0.337761
vt 0.760399 0.167912
vt 0.808251 0.482168
vt 0.781639 0.496901
vt 0.906261 0.157987
vt 0.939105 0.157989
vt 0.939237 0.327700
vt 0.906393 0.327697
vt 0.676903 0.342524
vt 0.645183 0.172247
vt 0.282522 0.847121
vt 0.255478 0.828551
vt 0.255478 0.801045
vt 0.282522 0.792108
vt 0.309566 0.810679
vt 0.309566 0.838185
vt 0.701804 0.014048
vt 0.675744 -0.000000
vt 0.759245 0.509998
vt 0.972330 0.000001
vt 0.939488 0.000000
vt 0.906266 0.500444
vt 0.939110 0.500447
vt 0.724967 0.028197
vt 0.939237 0.482745
vt 0.972080 0.482746
vt 0.939237 0.000002
vt 0.906393 -0.000000
vt 0.700818 0.510810
vt 0.674449 0.505349
vt 0.784208 0.000000
vt 0.754404 0.006034
vt 0.645183 0.499989
vt 0.728818 0.010431
vt 0.826606 0.011655
vt 0.897454 0.026860
vt 0.195035 0.432028
vt 0.255478 0.425681
vt 0.251758 0.545235
vt 0.191912 0.550278
vt 0.255287 0.581441
vt 0.326678 0.576767
vt 0.906261 0.294003
vt 0.726978 0.869798
vt 0.198182 0.622499
vt 0.197454 0.612449
vt 0.254700 0.668714
vt -0.000000 0.471580
vt 0.179475 0.425670
vt 0.173772 -0.000601
vt 0.655075 0.510809
vt 0.186576 0.710163
vt 0.255478 0.713435
vt 0.635422 0.900368
vt 0.479860 0.857854
vt 0.523633 0.766689
vt 0.706022 0.750505
vt 0.727977 0.860993
vt 0.645183 0.750249
vt -0.000001 0.677368
vt 0.139731 0.871533
vt -0.000021 0.796987
vt 0.812086 0.288101
vt 0.179656 0.538225
vt 0.053340 0.369202
vt 0.184018 0.676308
vt 0.288155 0.437464
vt 0.330508 0.568347
vt 0.505545 0.149969
vt 0.513053 0.158224
vt 0.635213 0.702982
vt 0.352375 0.453593
vt 0.366219 0.008610
vt 0.373160 0.000000
vt 0.582577 0.235060
vt 0.573348 0.241081
vt 0.620487 0.007364
vt 0.612232 -0.000000
vt 0.643524 0.316144
vt 0.356723 0.238067
s 0
f 40/1/1 35/2/1 38/3/1
f 79/4/2 77/5/2 80/6/2
f 70/7/3 89/8/3 84/9/3
f 72/10/4 79/11/4 83/12/4
f 72/13/5 83/14/5 84/15/5 74/16/5
f 71/17/6 93/18/6 96/19/6
f 66/20/7 71/17/7 87/21/7
f 80/22/8 86/23/8 75/24/8 79/11/8
f 85/25/9 75/24/9 73/26/9
f 73/26/10 75/24/10 69/27/10
f 82/28/11 78/29/11 86/30/11
f 94/31/12 93/32/12 91/33/12
f 87/34/13 96/35/13 70/36/13
f 5/37/14 3/38/14 4/39/14 6/40/14
f 7/41/15 5/42/15 6/43/15 8/44/15
f 9/45/16 7/41/16 8/44/16 10/46/16
f 16/47/17 8/44/17 6/43/17 15/48/17
f 11/49/18 9/50/18 10/51/18 12/52/18
f 2/53/19 1/54/19 11/55/19 12/56/19
f 46/57/20 44/58/20 45/59/20 47/60/20
f 15/61/21 13/62/21 14/63/21 18/64/21 17/65/21 16/66/21
f 18/67/22 14/68/22 2/53/22 12/56/22
f 17/69/23 10/46/23 8/44/23 16/47/23
f 15/70/24 6/40/24 4/39/24 13/71/24
f 18/72/25 12/52/25 10/51/25 17/73/25
f 14/68/26 13/74/26 4/75/26 2/53/26
f 22/76/27 21/77/27 19/78/27 20/79/27
f 23/80/28 21/81/28 22/82/28 24/83/28
f 25/84/29 23/85/29 24/86/29 26/87/29
f 27/88/30 25/84/30 26/87/30 28/89/30
f 33/90/31 34/91/31 37/92/31 36/93/31
f 29/94/32 27/95/32 28/96/32 30/97/32
f 20/79/33 19/78/33 29/98/33 30/99/33
f 44/100/34 42/101/34 43/102/34 45/103/34
f 34/104/35 33/105/35 31/106/35 32/107/35 35/108/35
f 4/75/36 3/109/36 1/54/36 2/53/36
f 32/110/37 39/111/37 38/112/37 35/113/37
f 34/91/38 35/114/38 40/115/38 37/92/38
f 33/116/39 36/117/39 41/118/39 31/119/39
f 31/120/40 41/121/40 39/111/40 32/110/40
f 39/111/41 41/121/41 22/76/41 20/79/41
f 38/3/42 30/122/42 28/123/42 40/1/42
f 41/118/43 36/117/43 24/124/43 22/125/43
f 40/115/44 28/89/44 26/87/44 37/92/44
f 38/112/45 39/111/45 20/79/45 30/99/45
f 37/92/46 26/87/46 24/86/46 36/93/46
f 49/126/47 48/127/47 46/128/47 47/129/47
f 51/130/48 50/131/48 48/127/48 49/126/48
f 56/132/49 57/133/49 49/126/49 47/129/49
f 52/134/50 50/135/50 51/136/50 53/137/50
f 42/101/51 52/138/51 53/139/51 43/102/51
f 56/140/21 54/141/21 55/142/21 59/143/21 58/144/21 57/145/21
f 55/146/52 43/102/52 53/139/52 59/147/52
f 57/133/53 58/148/53 51/130/53 49/126/53
f 56/149/54 47/60/54 45/59/54 54/150/54
f 59/151/55 53/137/55 51/136/55 58/152/55
f 54/153/56 45/103/56 43/102/56 55/146/56
f 61/154/57 44/58/57 46/57/57 62/155/57
f 64/156/58 50/135/58 52/134/58 65/157/58
f 61/158/59 60/159/59 42/101/59 44/100/59
f 62/160/60 46/128/60 48/127/60 63/161/60
f 60/159/61 65/162/61 52/138/61 42/101/61
f 63/161/62 48/127/62 50/131/62 64/163/62
f 67/164/63 76/165/63 86/30/63 78/29/63
f 66/166/64 85/167/64 73/168/64 71/169/64
f 83/14/65 81/170/65 70/171/65 84/15/65
f 86/30/66 80/172/66 82/28/66
f 79/4/67 90/173/67 77/5/67
f 91/174/68 92/175/68 71/169/68 73/168/68 69/176/68
f 88/177/69 68/178/69 84/9/69 89/8/69
f 85/25/70 81/179/70 75/24/70
f 71/17/71 92/180/71 93/18/71
f 67/181/72 91/174/72 69/176/72 76/182/72
f 94/183/73 91/184/73 67/185/73
f 74/186/74 68/187/74 90/173/74 79/4/74 72/188/74
f 81/179/75 83/12/75 75/24/75
f 83/12/76 79/11/76 75/24/76
f 90/189/77 82/190/77 77/191/77
f 77/192/78 82/28/78 80/172/78
f 74/193/79 84/9/79 68/178/79
f 76/194/80 69/27/80 75/24/80 86/23/80
f 90/189/81 95/195/81 82/190/81
f 85/196/82 87/197/82 70/171/82 81/170/82
f 95/198/83 88/199/83 93/32/83 94/31/83
f 94/183/84 67/185/84 78/200/84
f 66/201/85 87/197/85 85/196/85
f 87/21/86 71/17/86 96/19/86
f 95/198/87 94/31/87 78/202/87 82/203/87
f 88/199/88 89/204/88 96/205/88 93/32/88
f 68/206/89 88/199/89 95/198/89 90/207/89
f 70/208/90 96/205/90 89/204/90
f 91/33/91 93/32/91 92/209/91
