# Blender 5.0.1
# www.blender.org
o recipient
v -24.172087 0.209979 21.717958
v -24.079666 0.010255 21.556231
v -21.340725 0.209979 21.717958
v -21.469221 0.010255 21.557751
v -24.172087 0.209979 21.178379
v -24.079666 0.010255 21.340107
v -21.340725 0.209979 21.178377
v -21.469221 0.010255 21.338585
v -21.221014 0.209979 21.837671
v -24.291800 0.209979 21.837671
v -21.221014 0.209979 21.058666
v -24.291800 0.209979 21.058666
v -24.291800 0.063498 21.837671
v -21.221014 0.063497 21.837671
v -21.221014 0.063497 21.058666
v -24.291800 0.063498 21.058666
v -23.874063 0.209979 21.837671
v -23.874063 0.063498 21.837671
v -23.874063 0.209979 21.058666
v -23.874063 0.063498 21.058666
v -23.786922 0.209979 21.717958
v -23.786922 0.209979 21.178379
v -23.950521 0.010255 21.556231
v -23.950521 0.010255 21.340107
v -21.751116 0.063497 21.837671
v -21.751116 0.209979 21.058666
v -21.829496 0.209979 21.178377
v -21.632837 0.010255 21.557751
v -21.751116 0.209979 21.837671
v -21.751116 0.063497 21.058666
v -21.829496 0.209979 21.717958
v -21.632837 0.010255 21.338585
v -23.816908 0.010255 21.137186
v -24.213280 0.010255 21.137186
v -24.213280 0.010255 21.759151
v -23.816908 0.010255 21.759151
v -23.950521 -0.483420 21.340107
v -24.079666 -0.483420 21.340107
v -24.079666 -0.483420 21.556231
v -23.950521 -0.483420 21.556231
v -21.802526 0.010255 21.759151
v -21.299532 0.010255 21.759151
v -21.299532 0.010255 21.137186
v -21.802526 0.010255 21.137186
v -21.632837 -0.448955 21.557751
v -21.469221 -0.448955 21.557751
v -21.469221 -0.448955 21.338585
v -21.632837 -0.448955 21.338585
vn -0.0000 -0.0000 1.0000
vn 1.0000 -0.0000 -0.0000
vn -0.0000 -0.0000 -1.0000
vn -1.0000 -0.0000 -0.0000
vn -0.0000 1.0000 -0.0000
vn -0.0000 -0.8277 0.5612
vn 0.5612 -0.8277 -0.0000
vn -0.0000 -0.8277 -0.5612
vn -0.5612 -0.8277 -0.0000
vn -0.0000 -1.0000 -0.0000
vt 0.507365 0.827373
vt 0.555067 0.827373
vt 0.555067 1.000000
vt 0.507365 1.000000
vt 0.845675 0.000000
vt 0.893376 0.000000
vt 0.893376 0.253683
vt 0.845675 0.253683
vt 0.602769 0.136036
vt 0.555067 0.136036
vt 0.555067 -0.000000
vt 0.602769 -0.000000
vt 0.845675 0.253683
vt 0.893376 0.253683
vt 0.893376 0.507365
vt 0.845675 0.507365
vt 0.916055 0.656907
vt 0.958111 0.656907
vt 0.958111 0.817672
vt 0.916055 0.817672
vt 0.038985 0.835587
vt 0.038985 0.961016
vt 0.000001 1.000000
vt 0.000001 0.863964
vt 0.214699 0.038984
vt 0.038985 0.038984
vt 0.000001 0.000000
vt 0.253683 0.000000
vt 0.214699 0.198152
vt 0.253683 0.172627
vt 0.214699 0.961016
vt 0.253683 1.000000
vt 0.279253 0.810631
vt 0.279253 0.974431
vt 0.253683 1.000000
vt 0.253683 0.827373
vt 0.481795 0.974431
vt 0.507365 1.000000
vt 0.481795 0.154648
vt 0.481795 0.025570
vt 0.507365 0.000000
vt 0.507365 0.136036
vt 0.279253 0.025570
vt 0.253683 0.000000
vt 0.481795 0.810631
vt 0.507365 0.827373
vt 0.279253 0.154648
vt 0.253683 0.136036
vt 0.214699 0.835587
vt 0.253683 0.863964
vt 0.038985 0.198152
vt 0.000001 0.172627
vt 0.602769 0.827373
vt 0.555067 0.827373
vt 0.555067 0.000000
vt 0.555067 0.136036
vt 0.602769 1.000000
vt 0.555067 1.000000
vt 0.893376 -0.000000
vt 0.964747 -0.000000
vt 0.964747 0.149541
vt 0.893376 0.149541
vt 0.415714 0.111137
vt 0.415714 0.069081
vt 0.345334 0.069081
vt 0.345334 0.111137
vt 0.602769 0.964365
vt 0.602769 0.893985
vt 0.644825 0.893985
vt 0.644825 0.964365
vt 0.916055 0.817672
vt 0.958111 0.817672
vt 0.958111 0.978437
vt 0.916055 0.978437
vt 0.845674 0.507365
vt 0.916055 0.507365
vt 0.916055 0.668131
vt 0.845674 0.668131
vt 0.916055 0.828896
vt 0.845674 0.828896
vt 0.344839 0.865890
vt 0.344839 0.919172
vt 0.416210 0.919172
vt 0.416210 0.865890
vt 0.845675 0.900267
vt 0.845675 0.828896
vt 0.898956 0.828896
vt 0.898956 0.900267
vt 0.893376 0.299083
vt 0.946658 0.299083
vt 0.946658 0.448624
vt 0.893376 0.448624
vt 0.916055 0.507365
vt 0.969337 0.507365
vt 0.969337 0.656907
vt 0.916055 0.656907
vt 0.893376 0.149541
vt 0.964747 0.149541
vt 0.964747 0.299083
vt 0.893376 0.299083
s 0
f 29/1/1 25/2/1 14/3/1 9/4/1
f 9/5/2 14/6/2 15/7/2 11/8/2
f 19/9/3 20/10/3 16/11/3 12/12/3
f 12/13/4 16/14/4 13/15/4 10/16/4
f 23/17/1 2/18/1 39/19/1 40/20/1
f 21/21/5 1/22/5 10/23/5 17/24/5
f 7/25/5 3/26/5 9/27/5 11/28/5
f 27/29/5 7/25/5 11/28/5 26/30/5
f 1/22/5 5/31/5 12/32/5 10/23/5
f 41/33/6 42/34/6 14/35/6 25/36/6
f 42/34/7 43/37/7 15/38/7 14/35/7
f 33/39/8 34/40/8 16/41/8 20/42/8
f 34/40/9 35/43/9 13/44/9 16/41/9
f 44/45/8 33/39/8 20/42/8 30/46/8
f 35/43/6 36/47/6 18/48/6 13/44/6
f 5/31/5 22/49/5 19/50/5 12/32/5
f 31/51/5 21/21/5 17/24/5 29/52/5
f 44/45/10 41/33/10 36/47/10 33/39/10
f 26/53/3 30/54/3 20/10/3 19/9/3
f 10/41/1 13/55/1 18/56/1 17/42/1
f 11/57/3 15/58/3 30/54/3 26/53/3
f 8/59/2 4/60/2 46/61/2 47/62/2
f 3/26/5 31/51/5 29/52/5 9/27/5
f 43/37/8 44/45/8 30/46/8 15/38/8
f 36/47/6 41/33/6 25/36/6 18/48/6
f 22/49/5 27/29/5 26/30/5 19/50/5
f 17/42/1 18/56/1 25/2/1 29/1/1
f 24/63/10 6/64/10 34/40/10 33/39/10
f 6/64/10 2/65/10 35/43/10 34/40/10
f 2/65/10 23/66/10 36/47/10 35/43/10
f 23/66/10 24/63/10 33/39/10 36/47/10
f 37/67/10 40/68/10 39/69/10 38/70/10
f 6/71/3 24/72/3 37/73/3 38/74/3
f 24/75/2 23/76/2 40/77/2 37/78/2
f 2/78/4 6/77/4 38/79/4 39/80/4
f 28/81/10 4/82/10 42/34/10 41/33/10
f 4/82/10 8/83/10 43/37/10 42/34/10
f 8/83/10 32/84/10 44/45/10 43/37/10
f 32/84/10 28/81/10 41/33/10 44/45/10
f 47/85/10 46/86/10 45/87/10 48/88/10
f 32/89/3 8/90/3 47/91/3 48/92/3
f 4/93/1 28/94/1 45/95/1 46/96/1
f 28/97/4 32/98/4 48/99/4 45/100/4
o light
v -21.383488 0.066599 21.593060
v -24.128723 0.066599 21.593060
v -21.383488 0.079347 21.553823
v -24.128723 0.079347 21.553823
v -21.383488 0.112723 21.529575
v -24.128723 0.112723 21.529575
v -21.383488 0.153977 21.529575
v -24.128723 0.153978 21.529575
v -21.383488 0.187353 21.553823
v -24.128723 0.187353 21.553823
v -21.383488 0.200101 21.593060
v -24.128723 0.200101 21.593060
v -21.383488 0.187353 21.632296
v -24.128723 0.187353 21.632296
v -21.383488 0.153977 21.656544
v -24.128723 0.153978 21.656544
v -21.383488 0.112723 21.656544
v -24.128723 0.112723 21.656544
v -21.383488 0.079347 21.632296
v -24.128723 0.079347 21.632296
v -21.383488 0.066599 21.334326
v -24.128723 0.066599 21.334326
v -21.383488 0.079347 21.295090
v -24.128723 0.079347 21.295090
v -21.383488 0.112723 21.270842
v -24.128723 0.112723 21.270842
v -21.383488 0.153977 21.270842
v -24.128723 0.153978 21.270842
v -21.383488 0.187353 21.295090
v -24.128723 0.187353 21.295090
v -21.383488 0.200101 21.334326
v -24.128723 0.200101 21.334326
v -21.383488 0.187353 21.373562
v -24.128723 0.187353 21.373562
v -21.383488 0.153977 21.397810
v -24.128723 0.153978 21.397810
v -21.383488 0.112723 21.397810
v -24.128723 0.112723 21.397810
v -21.383488 0.079347 21.373562
v -24.128723 0.079347 21.373562
vn -0.0000 -0.9511 -0.3090
vn -0.0000 -0.5878 -0.8090
vn -0.0000 -0.0000 -1.0000
vn -0.0000 0.5878 -0.8090
vn -0.0000 0.9511 -0.3090
vn -0.0000 0.9511 0.3090
vn -0.0000 0.5878 0.8090
vn -0.0000 -0.0000 1.0000
vn -1.0000 -0.0000 -0.0000
vn -0.0000 -0.5878 0.8090
vn -0.0000 -0.9511 0.3090
vn 1.0000 -0.0000 -0.0000
vt 0.756234 0.893985
vt 0.756234 0.000000
vt 0.769011 0.000000
vt 0.769011 0.893985
vt 0.602769 0.893985
vt 0.602769 -0.000000
vt 0.613638 -0.000000
vt 0.613638 0.893985
vt 0.627072 -0.000000
vt 0.627072 0.893985
vt 0.637941 -0.000000
vt 0.637941 0.893985
vt 0.794566 0.000000
vt 0.794566 0.893985
vt 0.781789 0.893985
vt 0.781789 0.000000
vt 0.673113 0.000000
vt 0.673113 0.893985
vt 0.662244 0.893985
vt 0.662244 0.000000
vt 0.648810 0.893985
vt 0.648810 0.000000
vt 0.784804 0.909004
vt 0.784804 0.922439
vt 0.776908 0.933308
vt 0.764131 0.937459
vt 0.751354 0.933308
vt 0.743457 0.922439
vt 0.743457 0.909005
vt 0.751354 0.898136
vt 0.764130 0.893984
vt 0.776907 0.898136
vt 0.637941 0.893985
vt 0.637941 0.000000
vt 0.743457 0.893985
vt 0.743457 0.000000
vt 0.727519 0.922439
vt 0.719623 0.933308
vt 0.706846 0.937459
vt 0.694069 0.933308
vt 0.686172 0.922439
vt 0.686172 0.909005
vt 0.694069 0.898136
vt 0.706846 0.893984
vt 0.719623 0.898136
vt 0.727519 0.909004
vt 0.807343 0.893985
vt 0.807343 0.000000
vt 0.820120 0.000000
vt 0.820120 0.893985
vt 0.673113 0.893985
vt 0.673113 -0.000000
vt 0.683982 -0.000000
vt 0.683982 0.893985
vt 0.697416 -0.000000
vt 0.697416 0.893985
vt 0.708285 -0.000000
vt 0.708285 0.893985
vt 0.845675 0.000000
vt 0.845675 0.893985
vt 0.832897 0.893985
vt 0.832898 0.000000
vt 0.743457 0.000000
vt 0.743457 0.893985
vt 0.732588 0.893985
vt 0.732588 0.000000
vt 0.719154 0.893985
vt 0.719154 0.000000
vt 0.686172 0.909005
vt 0.686172 0.922439
vt 0.678275 0.933308
vt 0.665499 0.937460
vt 0.652722 0.933308
vt 0.644825 0.922440
vt 0.644825 0.909005
vt 0.652721 0.898136
vt 0.665498 0.893985
vt 0.678275 0.898136
vt 0.708285 0.893985
vt 0.708285 0.000000
vt 0.893376 0.477079
vt 0.893376 0.463644
vt 0.901273 0.452776
vt 0.914050 0.448624
vt 0.926827 0.452776
vt 0.934723 0.463645
vt 0.934723 0.477080
vt 0.926827 0.487948
vt 0.914050 0.492100
vt 0.901273 0.487948
s 0
f 49/101/11 50/102/11 52/103/11 51/104/11
f 51/105/12 52/106/12 54/107/12 53/108/12
f 53/108/13 54/107/13 56/109/13 55/110/13
f 55/110/14 56/109/14 58/111/14 57/112/14
f 57/113/15 58/114/15 60/115/15 59/116/15
f 59/116/16 60/115/16 62/104/16 61/103/16
f 61/117/17 62/118/17 64/119/17 63/120/17
f 63/120/18 64/119/18 66/121/18 65/122/18
f 52/123/19 50/124/19 68/125/19 66/126/19 64/127/19 62/128/19 60/129/19 58/130/19 56/131/19 54/132/19
f 65/122/20 66/121/20 68/133/20 67/134/20
f 67/135/21 68/136/21 50/102/21 49/101/21
f 49/137/22 51/138/22 53/139/22 55/140/22 57/141/22 59/142/22 61/143/22 63/144/22 65/145/22 67/146/22
f 69/147/11 70/148/11 72/149/11 71/150/11
f 71/151/12 72/152/12 74/153/12 73/154/12
f 73/154/13 74/153/13 76/155/13 75/156/13
f 75/156/14 76/155/14 78/157/14 77/158/14
f 77/159/15 78/160/15 80/161/15 79/162/15
f 79/162/16 80/161/16 82/150/16 81/149/16
f 81/163/17 82/164/17 84/165/17 83/166/17
f 83/166/18 84/165/18 86/167/18 85/168/18
f 72/169/19 70/170/19 88/171/19 86/172/19 84/173/19 82/174/19 80/175/19 78/176/19 76/177/19 74/178/19
f 85/168/20 86/167/20 88/179/20 87/180/20
f 87/114/21 88/113/21 70/148/21 69/147/21
f 69/181/22 71/182/22 73/183/22 75/184/22 77/185/22 79/186/22 81/187/22 83/188/22 85/189/22 87/190/22
