# Blender 5.0.1
# www.blender.org
o Pickup_tool
v 1.139640 4.267680 -0.181070
v 0.986185 5.033300 -0.177102
v 1.128108 4.263903 0.101763
v 0.974653 5.029523 0.105731
v 1.019182 4.243564 -0.186303
v 0.865727 5.009184 -0.182335
v 1.007650 4.239787 0.096530
v 0.854195 5.005406 0.100498
v 1.282305 4.197941 -0.041038
v 1.223185 4.160662 -0.044119
v 1.363027 4.084783 -0.046543
v 1.290939 4.039326 -0.050300
v 1.222075 4.309018 -0.039874
v 1.152184 4.264946 -0.043516
v 1.413390 3.973712 -0.046961
v 1.379907 3.884999 -0.051178
v 1.272183 3.840810 -0.058747
v 1.313384 3.961061 -0.050718
v 1.304615 3.919498 -0.052735
v 1.269802 3.886292 -0.057515
v 1.283179 4.198685 -0.066808
v 1.224059 4.161406 -0.069889
v 1.363564 4.085239 -0.062380
v 1.291476 4.039783 -0.066137
v 1.222949 4.309762 -0.065644
v 1.153058 4.265690 -0.069287
v 1.414000 3.974231 -0.064954
v 1.380482 3.885489 -0.068132
v 1.272580 3.841147 -0.070431
v 1.313994 3.961581 -0.068711
v 1.305190 3.919988 -0.069690
v 1.270198 3.886630 -0.069199
v 0.853936 4.201269 -0.041925
v 0.912482 4.163075 -0.044762
v 0.771489 4.089378 -0.047768
v 0.842877 4.042807 -0.051228
v 0.915880 4.311397 -0.040508
v 0.985091 4.266245 -0.043863
v 0.719409 3.979103 -0.048399
v 0.751527 3.889881 -0.052479
v 0.858581 3.844023 -0.059604
v 0.819221 3.964900 -0.051741
v 0.827351 3.923206 -0.053724
v 0.861663 3.889463 -0.058360
v 0.853181 4.202026 -0.067699
v 0.911726 4.163833 -0.070536
v 0.771025 4.089843 -0.063608
v 0.842413 4.043272 -0.067067
v 0.915124 4.312153 -0.066282
v 0.984336 4.267001 -0.069636
v 0.718881 3.979631 -0.066394
v 0.751029 3.890379 -0.069436
v 0.858239 3.844366 -0.071289
v 0.818693 3.965429 -0.069737
v 0.826854 3.923704 -0.070681
v 0.861321 3.889806 -0.070046
v 1.069802 4.456622 0.106877
v 1.070501 4.457004 -0.229331
v 0.970746 4.425285 0.106635
v 0.971445 4.425667 -0.229573
v 0.909028 4.341710 0.106412
v 0.909727 4.342092 -0.229796
v 0.908221 4.237819 0.106293
v 0.908920 4.238200 -0.229916
v 0.968634 4.153295 0.106323
v 0.969333 4.153676 -0.229886
v 1.067191 4.120423 0.106490
v 1.067890 4.120804 -0.229718
v 1.166246 4.151760 0.106732
v 1.166946 4.152141 -0.229477
v 1.227965 4.235335 0.106955
v 1.228664 4.235716 -0.229253
v 1.228772 4.339226 0.107075
v 1.229471 4.339607 -0.229134
v 1.168359 4.423750 0.107045
v 1.169058 4.424131 -0.229164
v 0.891333 5.248863 0.136354
v 0.892033 5.249244 -0.199854
v 0.792278 5.217526 0.136113
v 0.792977 5.217908 -0.200096
v 0.730559 5.133951 0.135889
v 0.731258 5.134332 -0.200319
v 0.729752 5.030060 0.135770
v 0.730452 5.030441 -0.200439
v 0.790165 4.945536 0.135800
v 0.790865 4.945917 -0.200409
v 0.888722 4.912664 0.135967
v 0.889421 4.913045 -0.200241
v 0.987778 4.944000 0.136209
v 0.988477 4.944382 -0.199999
v 1.049496 5.027575 0.136432
v 1.050195 5.027957 -0.199776
v 1.050303 5.131467 0.136552
v 1.051002 5.131848 -0.199657
v 0.989890 5.215991 0.136522
v 0.990589 5.216372 -0.199687
v -0.151101 4.660859 0.175632
v -0.150402 4.661240 -0.160576
v -0.250157 4.629522 0.175391
v -0.249458 4.629904 -0.160818
v -0.311875 4.545947 0.175167
v -0.311176 4.546329 -0.161041
v -0.312682 4.442056 0.175048
v -0.311983 4.442437 -0.161161
v -0.252269 4.357532 0.175078
v -0.251570 4.357913 -0.161131
v -0.153712 4.324660 0.175245
v -0.153013 4.325041 -0.160963
v -0.054657 4.355996 0.175487
v -0.053957 4.356378 -0.160721
v 0.007062 4.439572 0.175710
v 0.007761 4.439953 -0.160498
v 0.007869 4.543463 0.175830
v 0.008568 4.543844 -0.160379
v -0.052544 4.627987 0.175800
v -0.051845 4.628368 -0.160409
v -0.178754 4.387926 -0.116718
v 0.880903 5.048529 -0.166664
v -0.162873 4.383820 0.165900
v 0.896783 5.044423 0.115954
v -0.243571 4.492287 -0.111560
v 0.816086 5.152890 -0.161505
v -0.227690 4.488181 0.171058
v 0.831966 5.148784 0.121112
v -0.100746 3.145738 -0.135633
v -0.091040 4.395405 -0.134195
v -0.101334 3.145417 0.147460
v -0.091629 4.395083 0.148897
v -0.223702 3.146693 -0.135887
v -0.213996 4.396360 -0.134450
v -0.224290 3.146372 0.147205
v -0.214585 4.396039 0.148642
v 0.365711 0.184575 -0.522737
v 0.075470 3.224253 -0.230515
v 0.363509 0.183375 0.535863
v 0.074485 3.223716 0.243252
v -0.692858 0.192799 -0.524930
v -0.398282 3.227934 -0.231496
v -0.695060 0.191598 0.533671
v -0.399268 3.227396 0.242270
v 0.368487 3.222313 -0.522326
v 0.366285 3.221113 0.536274
v -0.692284 3.229337 0.534082
v -0.690083 3.230537 -0.524519
vn 0.9797 0.1961 0.0426
vn -0.0407 -0.0133 0.9991
vn -0.9797 -0.1961 -0.0426
vn 0.0407 0.0133 -0.9991
vn 0.0148 0.0591 -0.9981
vn 0.0339 0.0288 -0.9990
vn 0.0373 0.0188 -0.9991
vn 0.0348 0.0365 -0.9987
vn 0.0580 0.0523 -0.9969
vn -0.0530 0.0015 0.9986
vn -0.0339 -0.0288 0.9990
vn -0.0305 -0.0389 0.9988
vn -0.0329 -0.0212 0.9992
vn -0.0097 -0.0054 0.9999
vn 0.9605 0.2752 0.0405
vn -0.8143 -0.5787 -0.0443
vn -0.9100 -0.4124 -0.0428
vn 0.5336 -0.8457 -0.0063
vn 0.9778 -0.2076 0.0272
vn -0.9350 0.3539 -0.0215
vn -0.8784 -0.4759 -0.0435
vn 0.6900 -0.7238 0.0025
vn 0.8732 0.4854 0.0436
vn -0.3803 0.9248 0.0138
vn 0.8259 0.5621 0.0442
vn 0.9981 0.0513 0.0353
vn -0.0097 0.0593 -0.9982
vn -0.0293 0.0293 -0.9991
vn -0.0329 0.0193 -0.9993
vn -0.0301 0.0370 -0.9989
vn -0.0530 0.0531 -0.9972
vn 0.0488 0.0007 0.9988
vn 0.0293 -0.0293 0.9991
vn 0.0257 -0.0394 0.9989
vn 0.0285 -0.0217 0.9994
vn 0.0055 -0.0055 1.0000
vn -0.9563 0.2901 0.0366
vn 0.8054 -0.5913 -0.0410
vn 0.9036 -0.4265 -0.0390
vn -0.5467 -0.8373 -0.0086
vn -0.9810 -0.1924 0.0231
vn 0.9405 0.3394 -0.0176
vn 0.8711 -0.4895 -0.0399
vn -0.7012 -0.7130 -0.0004
vn -0.8657 0.4989 0.0400
vn 0.3946 0.9187 0.0154
vn -0.8173 0.5748 0.0408
vn -0.9973 0.0668 0.0312
vn -0.3016 0.9534 0.0005
vn -0.8044 0.5941 -0.0010
vn -1.0000 0.0078 -0.0021
vn -0.8136 -0.5815 -0.0024
vn -0.3164 -0.9486 -0.0017
vn 0.3016 -0.9534 -0.0005
vn 0.8044 -0.5941 0.0010
vn 1.0000 -0.0078 0.0021
vn 0.0021 0.0011 -1.0000
vn 0.8136 0.5815 0.0024
vn 0.3164 0.9486 0.0017
vn -0.0021 -0.0011 1.0000
vn -0.8044 0.5940 -0.0010
vn 0.5271 -0.8487 -0.0420
vn 0.0561 -0.0145 0.9983
vn -0.5271 0.8487 0.0420
vn -0.0561 0.0145 -0.9983
vn 1.0000 -0.0009 0.0021
vn -0.0021 -0.0001 1.0000
vn -1.0000 0.0009 -0.0021
vn 0.0021 0.0001 -1.0000
vn 0.0078 1.0000 0.0012
vt 0.858603 0.916268
vt 0.858603 0.854115
vt 0.908715 0.851865
vt 0.908715 0.914019
vt 0.637220 0.886895
vt 0.637220 0.791981
vt 0.687414 0.791990
vt 0.687414 0.886905
vt 0.050194 0.886999
vt 0.050194 0.792081
vt 0.100253 0.792055
vt 0.100253 0.886972
vt 0.000000 0.886960
vt 0.000000 0.792077
vt 0.050194 0.792055
vt 0.050194 0.886937
vt 0.129454 0.833811
vt 0.147417 0.812564
vt 0.147417 0.845308
vt 0.129454 0.860665
vt 0.113151 0.878974
vt 0.113151 0.847229
vt 0.163034 0.803030
vt 0.157521 0.843740
vt 0.170430 0.824569
vt 0.161464 0.851101
vt 0.167844 0.871319
vt 0.162705 0.868006
vt 0.764153 0.876479
vt 0.764153 0.903331
vt 0.746206 0.887982
vt 0.746206 0.855240
vt 0.780455 0.889900
vt 0.780455 0.921644
vt 0.736100 0.886409
vt 0.730586 0.845699
vt 0.723193 0.867236
vt 0.732158 0.893770
vt 0.725787 0.913992
vt 0.730926 0.910681
vt 0.700778 0.759853
vt 0.700603 0.768353
vt 0.697412 0.768345
vt 0.697969 0.759846
vt 0.354283 0.711917
vt 0.355137 0.732989
vt 0.350563 0.732989
vt 0.351472 0.711917
vt 0.709836 0.726144
vt 0.711311 0.711843
vt 0.714114 0.711968
vt 0.713020 0.726286
vt 0.718687 0.711843
vt 0.718687 0.743591
vt 0.714114 0.743629
vt 0.714114 0.711881
vt 0.709587 0.711843
vt 0.709402 0.719242
vt 0.706393 0.719243
vt 0.706393 0.711844
vt 0.711114 0.736154
vt 0.714114 0.736287
vt 0.355137 0.726799
vt 0.355137 0.712209
vt 0.359691 0.711917
vt 0.359691 0.726507
vt 0.708787 0.736162
vt 0.706713 0.736162
vt 0.701839 0.736251
vt 0.697269 0.736240
vt 0.729036 0.651645
vt 0.729970 0.685276
vt 0.726965 0.685164
vt 0.726965 0.651568
vt 0.701839 0.711854
vt 0.697269 0.711843
vt 0.708718 0.739524
vt 0.706644 0.739524
vt 0.331737 0.813186
vt 0.344832 0.796545
vt 0.342641 0.836143
vt 0.326673 0.856435
vt 0.333435 0.777647
vt 0.348917 0.757973
vt 0.344888 0.853969
vt 0.326673 0.888406
vt 0.339371 0.887417
vt 0.349645 0.856001
vt 0.361379 0.854170
vt 0.358237 0.847642
vt 0.888384 0.776812
vt 0.893330 0.819847
vt 0.877381 0.799542
vt 0.875304 0.760160
vt 0.871244 0.721585
vt 0.886707 0.741271
vt 0.893330 0.851865
vt 0.875144 0.817414
vt 0.880629 0.850843
vt 0.870378 0.819420
vt 0.858603 0.817464
vt 0.861748 0.810937
vt 0.359691 0.711917
vt 0.362513 0.712111
vt 0.363033 0.721016
vt 0.359827 0.720796
vt 0.725570 0.752440
vt 0.722755 0.752785
vt 0.722115 0.709903
vt 0.726695 0.709342
vt 0.725474 0.783352
vt 0.722276 0.783745
vt 0.726965 0.674546
vt 0.722385 0.675108
vt 0.722115 0.652130
vt 0.726695 0.651568
vt 0.362712 0.726176
vt 0.359691 0.725969
vt 0.721711 0.723854
vt 0.718688 0.723607
vt 0.718906 0.711843
vt 0.722115 0.712105
vt 0.729995 0.695580
vt 0.726965 0.695761
vt 0.727907 0.685401
vt 0.729995 0.685276
vt 0.706393 0.732463
vt 0.701839 0.731742
vt 0.702523 0.711843
vt 0.705322 0.712286
vt 0.722115 0.758637
vt 0.720031 0.758467
vt 0.706393 0.753790
vt 0.701839 0.753069
vt 0.362986 0.651642
vt 0.365068 0.651778
vt 0.365068 0.657175
vt 0.362986 0.657039
vt 0.350563 0.705354
vt 0.290926 0.700803
vt 0.290814 0.669829
vt 0.350450 0.674380
vt 0.290518 0.651642
vt 0.350155 0.656192
vt 0.362986 0.651642
vt 0.362986 0.711460
vt 0.350563 0.711917
vt 0.350563 0.652099
vt 0.119701 0.787516
vt 0.060048 0.792055
vt 0.060293 0.776204
vt 0.119946 0.771665
vt 0.060444 0.740457
vt 0.120097 0.735919
vt 0.060444 0.698470
vt 0.120097 0.693932
vt 0.060293 0.666279
vt 0.119946 0.661740
vt 0.060048 0.656180
vt 0.119701 0.651642
vt 0.248560 0.853720
vt 0.248560 0.811559
vt 0.256020 0.774987
vt 0.268089 0.757973
vt 0.280158 0.767015
vt 0.287617 0.798660
vt 0.287617 0.840820
vt 0.280158 0.877392
vt 0.268089 0.894407
vt 0.256020 0.885365
vt 0.350155 0.757973
vt 0.290518 0.753422
vt 0.290814 0.732733
vt 0.350450 0.737283
vt 0.819529 0.775170
vt 0.819529 0.817331
vt 0.812066 0.848976
vt 0.799992 0.858019
vt 0.787917 0.841006
vt 0.780455 0.804434
vt 0.780455 0.762274
vt 0.787917 0.730628
vt 0.799992 0.721585
vt 0.812066 0.738599
vt 0.230474 0.705354
vt 0.170838 0.700803
vt 0.170725 0.669829
vt 0.230362 0.674380
vt 0.170430 0.651642
vt 0.230066 0.656192
vt 0.722115 0.651568
vt 0.722115 0.711386
vt 0.709692 0.711843
vt 0.709692 0.652025
vt 0.696873 0.787443
vt 0.637220 0.791981
vt 0.637465 0.776130
vt 0.697118 0.771592
vt 0.637616 0.740384
vt 0.697269 0.735845
vt 0.637616 0.698396
vt 0.697269 0.693858
vt 0.637465 0.666205
vt 0.697118 0.661667
vt 0.637220 0.656106
vt 0.696873 0.651568
vt 0.287617 0.853719
vt 0.287617 0.811559
vt 0.295076 0.774987
vt 0.307145 0.757973
vt 0.319214 0.767015
vt 0.326673 0.798660
vt 0.326673 0.840820
vt 0.319214 0.877392
vt 0.307145 0.894407
vt 0.295076 0.885364
vt 0.230066 0.757973
vt 0.170430 0.753422
vt 0.170725 0.732733
vt 0.230362 0.737283
vt 0.209504 0.811558
vt 0.209504 0.853718
vt 0.202041 0.885364
vt 0.189967 0.894407
vt 0.177892 0.877394
vt 0.170430 0.840822
vt 0.170430 0.798662
vt 0.177892 0.767016
vt 0.189967 0.757973
vt 0.202041 0.774986
vt 0.290518 0.705354
vt 0.230882 0.700803
vt 0.230769 0.669829
vt 0.290406 0.674380
vt 0.230474 0.651642
vt 0.290111 0.656192
vt 0.709692 0.651568
vt 0.709692 0.711386
vt 0.697269 0.711843
vt 0.697269 0.652025
vt 0.059653 0.787516
vt 0.000000 0.792055
vt 0.000244 0.776204
vt 0.059897 0.771665
vt 0.000395 0.740457
vt 0.060048 0.735919
vt 0.000395 0.698470
vt 0.060048 0.693931
vt 0.000244 0.666279
vt 0.059897 0.661740
vt 0.000000 0.656180
vt 0.059653 0.651642
vt 0.209504 0.853720
vt 0.209504 0.811559
vt 0.216963 0.774987
vt 0.229032 0.757973
vt 0.241101 0.767015
vt 0.248560 0.798660
vt 0.248560 0.840820
vt 0.241101 0.877392
vt 0.229032 0.894407
vt 0.216963 0.885365
vt 0.290111 0.757973
vt 0.230474 0.753422
vt 0.230769 0.732733
vt 0.290406 0.737283
vt 0.858603 0.775170
vt 0.858603 0.817331
vt 0.851140 0.848976
vt 0.839066 0.858019
vt 0.826991 0.841006
vt 0.819529 0.804434
vt 0.819529 0.762274
vt 0.826991 0.730628
vt 0.839066 0.721585
vt 0.851140 0.738599
vt 0.917922 0.858320
vt 0.917922 0.379177
vt 0.968282 0.370294
vt 0.968282 0.849437
vt 0.984143 0.849354
vt 0.984143 0.370294
vt 1.000000 0.386123
vt 1.000000 0.865183
vt 0.968683 0.008044
vt 0.968683 0.333070
vt 0.918385 0.325027
vt 0.918385 -0.000000
vt 0.968282 0.865154
vt 0.968282 0.386128
vt 0.984143 0.370294
vt 0.984143 0.849320
vt 0.730148 0.845699
vt 0.730148 0.724190
vt 0.780455 0.721585
vt 0.780455 0.843094
vt 0.553239 0.833025
vt 0.553239 0.651568
vt 0.595232 0.677217
vt 0.595232 0.858675
vt 0.120097 0.801176
vt 0.120097 0.651641
vt 0.170430 0.653496
vt 0.170430 0.803030
vt 0.595232 0.858625
vt 0.595232 0.677226
vt 0.637220 0.651568
vt 0.637220 0.832967
vt 0.365097 0.947955
vt 0.365097 0.660817
vt 0.553239 0.651568
vt 0.553239 0.938706
vt 0.000000 0.436755
vt 0.000000 0.000000
vt 0.365097 0.214887
vt 0.365097 0.651642
vt 0.730148 0.363897
vt 0.730148 0.000000
vt 0.918385 0.006397
vt 0.918385 0.370294
vt 0.365097 0.651568
vt 0.365097 0.214965
vt 0.730148 0.000000
vt 0.730148 0.436603
vt 0.866054 0.473744
vt 0.866054 0.624548
vt 0.782017 0.618135
vt 0.782017 0.467331
vt 0.917922 0.721585
vt 0.730148 0.707256
vt 0.917922 0.384623
vt 0.730148 0.370294
s 0
f 1/1/1 2/2/1 4/3/1 3/4/1
f 3/5/2 4/6/2 8/7/2 7/8/2
f 7/9/3 8/10/3 6/11/3 5/12/3
f 5/13/4 6/14/4 2/15/4 1/16/4
f 9/17/5 11/18/5 12/19/5 10/20/5
f 10/20/6 14/21/6 13/22/6 9/17/6
f 12/19/7 11/18/7 15/23/7 18/24/7
f 16/25/8 19/26/8 18/24/8 15/23/8
f 17/27/9 20/28/9 19/26/9 16/25/9
f 21/29/10 22/30/10 24/31/10 23/32/10
f 22/30/11 21/29/11 25/33/11 26/34/11
f 24/31/12 30/35/12 27/36/12 23/32/12
f 28/37/13 27/36/13 30/35/13 31/38/13
f 29/39/14 28/37/14 31/38/14 32/40/14
f 12/41/15 18/42/15 30/43/15 24/44/15
f 11/45/16 9/46/16 21/47/16 23/48/16
f 15/49/17 11/50/17 23/51/17 27/52/17
f 13/53/18 14/54/18 26/55/18 25/56/18
f 18/57/19 19/58/19 31/59/19 30/60/19
f 16/61/20 15/49/20 27/52/20 28/62/20
f 9/63/21 13/64/21 25/65/21 21/66/21
f 19/58/22 20/67/22 32/68/22 31/59/22
f 10/69/23 12/41/23 24/44/23 22/70/23
f 17/71/24 16/72/24 28/73/24 29/74/24
f 14/75/25 10/69/25 22/70/25 26/76/25
f 20/67/26 17/77/26 29/78/26 32/68/26
f 33/79/27 34/80/27 36/81/27 35/82/27
f 34/80/28 33/79/28 37/83/28 38/84/28
f 36/81/29 42/85/29 39/86/29 35/82/29
f 40/87/30 39/86/30 42/85/30 43/88/30
f 41/89/31 40/87/31 43/88/31 44/90/31
f 45/91/32 47/92/32 48/93/32 46/94/32
f 46/94/33 50/95/33 49/96/33 45/91/33
f 48/93/34 47/92/34 51/97/34 54/98/34
f 52/99/35 55/100/35 54/98/35 51/97/35
f 53/101/36 56/102/36 55/100/36 52/99/36
f 36/103/37 48/104/37 54/105/37 42/106/37
f 35/107/38 47/108/38 45/109/38 33/110/38
f 39/111/39 51/112/39 47/108/39 35/107/39
f 37/113/40 49/114/40 50/115/40 38/116/40
f 42/106/41 54/105/41 55/117/41 43/118/41
f 40/119/42 52/120/42 51/121/42 39/122/42
f 33/110/43 45/109/43 49/114/43 37/113/43
f 43/123/44 55/124/44 56/125/44 44/126/44
f 34/127/45 46/128/45 48/129/45 36/130/45
f 41/131/46 53/132/46 52/120/46 40/119/46
f 38/133/47 50/134/47 46/128/47 34/127/47
f 44/135/48 56/136/48 53/137/48 41/138/48
f 57/139/49 58/140/49 60/141/49 59/142/49
f 59/142/50 60/141/50 62/143/50 61/144/50
f 61/145/51 62/146/51 64/147/51 63/148/51
f 63/149/52 64/150/52 66/151/52 65/152/52
f 65/152/53 66/151/53 68/153/53 67/154/53
f 67/154/54 68/153/54 70/155/54 69/156/54
f 69/156/55 70/155/55 72/157/55 71/158/55
f 71/158/56 72/157/56 74/159/56 73/160/56
f 60/161/57 58/162/57 76/163/57 74/164/57 72/165/57 70/166/57 68/167/57 66/168/57 64/169/57 62/170/57
f 73/171/58 74/172/58 76/173/58 75/174/58
f 75/174/59 76/173/59 58/140/59 57/139/59
f 57/175/60 59/176/60 61/177/60 63/178/60 65/179/60 67/180/60 69/181/60 71/182/60 73/183/60 75/184/60
f 77/185/49 78/186/49 80/187/49 79/188/49
f 79/188/50 80/187/50 82/189/50 81/190/50
f 81/191/51 82/192/51 84/193/51 83/194/51
f 83/195/52 84/196/52 86/197/52 85/198/52
f 85/198/53 86/197/53 88/199/53 87/200/53
f 87/200/54 88/199/54 90/201/54 89/202/54
f 89/202/55 90/201/55 92/203/55 91/204/55
f 91/204/56 92/203/56 94/205/56 93/206/56
f 80/207/57 78/208/57 96/209/57 94/210/57 92/211/57 90/212/57 88/213/57 86/214/57 84/215/57 82/216/57
f 93/217/58 94/218/58 96/219/58 95/220/58
f 95/220/59 96/219/59 78/186/59 77/185/59
f 77/221/60 79/222/60 81/223/60 83/224/60 85/225/60 87/226/60 89/227/60 91/228/60 93/229/60 95/230/60
f 97/231/49 98/232/49 100/233/49 99/234/49
f 99/234/61 100/233/61 102/235/61 101/236/61
f 101/237/51 102/238/51 104/239/51 103/240/51
f 103/241/52 104/242/52 106/243/52 105/244/52
f 105/244/53 106/243/53 108/245/53 107/246/53
f 107/246/54 108/245/54 110/247/54 109/248/54
f 109/248/55 110/247/55 112/249/55 111/250/55
f 111/250/56 112/249/56 114/251/56 113/252/56
f 100/253/57 98/254/57 116/255/57 114/256/57 112/257/57 110/258/57 108/259/57 106/260/57 104/261/57 102/262/57
f 113/263/58 114/264/58 116/265/58 115/266/58
f 115/266/59 116/265/59 98/232/59 97/231/59
f 97/267/60 99/268/60 101/269/60 103/270/60 105/271/60 107/272/60 109/273/60 111/274/60 113/275/60 115/276/60
f 117/277/62 118/278/62 120/279/62 119/280/62
f 119/281/63 120/282/63 124/283/63 123/284/63
f 123/285/64 124/286/64 122/287/64 121/288/64
f 121/289/65 122/290/65 118/291/65 117/292/65
f 125/293/56 126/294/56 128/295/56 127/296/56
f 127/297/60 128/298/60 132/299/60 131/300/60
f 131/301/51 132/302/51 130/303/51 129/304/51
f 129/305/57 130/306/57 126/307/57 125/308/57
f 133/309/66 141/310/66 142/311/66 135/312/66
f 135/313/67 142/314/67 143/315/67 139/316/67
f 139/317/68 143/318/68 144/319/68 137/320/68
f 137/321/69 144/322/69 141/323/69 133/324/69
f 140/325/70 136/326/70 134/327/70 138/328/70
f 134/327/70 136/326/70 142/329/70 141/330/70
f 136/326/70 140/325/70 143/331/70 142/329/70
f 140/325/70 138/328/70 144/332/70 143/331/70
f 138/328/70 134/327/70 141/330/70 144/332/70
o Cube
v 0.358206 2.437671 0.118152
v 0.358206 2.686888 0.118152
v 0.358206 2.437671 -0.131065
v 0.358206 2.686888 -0.131065
v 0.465527 2.434712 0.121111
v 0.465527 2.689847 0.121111
v 0.465527 2.434712 -0.134024
v 0.465527 2.689847 -0.134024
vn -1.0000 -0.0000 -0.0000
vn -0.0276 -0.0000 -0.9996
vn 1.0000 -0.0000 -0.0000
vn -0.0276 -0.0000 0.9996
vn -0.0276 -0.9996 -0.0000
vn -0.0276 0.9996 -0.0000
vt 0.375000 0.000000
vt 0.625000 0.000000
vt 0.625000 0.250000
vt 0.375000 0.250000
vt 0.625000 0.500000
vt 0.375000 0.500000
vt 0.625000 0.750000
vt 0.375000 0.750000
vt 0.625000 1.000000
vt 0.375000 1.000000
vt 0.125000 0.500000
vt 0.125000 0.750000
vt 0.875000 0.500000
vt 0.875000 0.750000
s 0
f 145/333/71 146/334/71 148/335/71 147/336/71
f 147/336/72 148/335/72 152/337/72 151/338/72
f 151/338/73 152/337/73 150/339/73 149/340/73
f 149/340/74 150/339/74 146/341/74 145/342/74
f 147/343/75 151/338/75 149/340/75 145/344/75
f 152/337/76 148/345/76 146/346/76 150/339/76
