# Blender 5.0.1
# www.blender.org
o pipe1
v -0.000000 0.200777 -1.422418
v -0.000000 0.200777 1.427117
v 0.118014 0.162432 -1.422418
v 0.118014 0.162432 1.427117
v 0.190950 0.062044 -1.422418
v 0.190950 0.062044 1.427117
v 0.190950 -0.062044 -1.422418
v 0.190950 -0.062044 1.427117
v 0.118014 -0.162432 -1.422418
v 0.118014 -0.162432 1.427117
v -0.000000 -0.200777 -1.422418
v -0.000000 -0.200777 1.427117
v -0.118014 -0.162432 -1.422418
v -0.118014 -0.162432 1.427117
v -0.190950 -0.062044 -1.422418
v -0.190950 -0.062044 1.427117
v -0.190950 0.062044 -1.422418
v -0.190950 0.062044 1.427117
v -0.118014 0.162432 -1.422418
v -0.118014 0.162432 1.427117
v -0.000000 0.200777 0.302378
v 0.118014 0.162432 0.302378
v 0.190950 0.062044 0.302378
v 0.190950 -0.062044 0.302378
v 0.118014 -0.162432 0.302378
v -0.000000 -0.200777 0.302378
v -0.118014 -0.162432 0.302378
v -0.190950 -0.062044 0.302378
v -0.190950 0.062044 0.302378
v -0.118014 0.162432 0.302378
v 0.118014 0.162432 -0.345268
v 0.190950 0.062044 -0.345268
v 0.190950 -0.062044 -0.345268
v 0.118014 -0.162432 -0.345268
v -0.000000 -0.200777 -0.345268
v -0.118014 -0.162432 -0.345268
v -0.190950 -0.062044 -0.345268
v -0.190950 0.062044 -0.345268
v -0.118014 0.162432 -0.345268
v -0.000000 0.200777 -0.345268
v -0.000000 0.262250 -0.345268
v -0.000000 0.262250 0.302378
v -0.154147 0.212165 0.302378
v -0.249415 0.081040 0.302378
v -0.249415 -0.081040 0.302378
v -0.154147 -0.212165 0.302378
v -0.000000 -0.262250 0.302378
v 0.154147 -0.212165 0.302378
v 0.249415 -0.081040 0.302378
v 0.249415 0.081040 0.302378
v 0.154147 0.212165 0.302378
v 0.154147 0.212165 -0.345268
v 0.249415 0.081040 -0.345268
v 0.249415 -0.081040 -0.345268
v 0.154147 -0.212165 -0.345268
v -0.000000 -0.262250 -0.345268
v -0.154147 -0.212165 -0.345268
v -0.249415 -0.081040 -0.345268
v -0.249415 0.081040 -0.345268
v -0.154147 0.212165 -0.345268
vn 0.3090 0.9511 -0.0000
vn 0.8090 0.5878 -0.0000
vn 1.0000 -0.0000 -0.0000
vn 0.8090 -0.5878 -0.0000
vn 0.3090 -0.9511 -0.0000
vn -0.3090 -0.9511 -0.0000
vn -0.8090 -0.5878 -0.0000
vn -1.0000 -0.0000 -0.0000
vn -0.0000 -0.0000 1.0000
vn -0.8090 0.5878 -0.0000
vn -0.3090 0.9511 -0.0000
vn -0.0000 -0.0000 -1.0000
vt 0.735249 0.479736
vt 0.735249 -0.000000
vt 0.778068 -0.000000
vt 0.778068 0.479736
vt 0.830995 -0.000000
vt 0.830995 0.479736
vt 0.000000 0.479736
vt 0.000000 0.000000
vt 0.042819 0.000000
vt 0.042819 0.479736
vt 0.095746 0.000000
vt 0.095746 0.479736
vt 0.138565 0.000000
vt 0.138565 0.479736
vt 0.138565 0.479736
vt 0.181384 0.000000
vt 0.181384 0.479736
vt 0.234311 0.000000
vt 0.234311 0.479736
vt 0.277130 0.000000
vt 0.277130 0.479736
vt 0.031110 0.858372
vt 0.000000 0.815553
vt 0.000000 0.762626
vt 0.031110 0.719807
vt 0.081446 0.703452
vt 0.131783 0.719807
vt 0.162893 0.762626
vt 0.162893 0.815553
vt 0.131783 0.858372
vt 0.081446 0.874728
vt 0.830995 0.479736
vt 0.830995 0.000000
vt 0.883922 0.000000
vt 0.883922 0.479736
vt 0.926741 0.000000
vt 0.926741 0.479736
vt 0.554259 0.940826
vt 0.554259 0.887899
vt 0.585369 0.845080
vt 0.635706 0.828724
vt 0.686042 0.845080
vt 0.717152 0.887899
vt 0.717152 0.940826
vt 0.686042 0.983645
vt 0.635706 1.000000
vt 0.585369 0.983645
vt 0.187829 0.618058
vt 0.187829 0.565131
vt 0.212766 0.557028
vt 0.212766 0.626160
vt 0.302067 0.597759
vt 0.333176 0.640578
vt 0.317765 0.661791
vt 0.277130 0.605862
vt 0.156720 0.522312
vt 0.172132 0.501099
vt 0.433850 0.640578
vt 0.464959 0.597759
vt 0.489896 0.605862
vt 0.449261 0.661791
vt 0.383513 0.656934
vt 0.383513 0.683154
vt 0.106383 0.505956
vt 0.106383 0.479736
vt 0.464959 0.544832
vt 0.489896 0.536730
vt 0.056047 0.522312
vt 0.040635 0.501099
vt 0.433850 0.502013
vt 0.449261 0.480801
vt 0.735249 0.939174
vt 0.735249 0.479736
vt 0.778068 0.479736
vt 0.778068 0.939174
vt 0.830995 0.479736
vt 0.830995 0.939174
vt 0.277130 0.459438
vt 0.277130 0.000000
vt 0.319949 0.000000
vt 0.319949 0.459438
vt 0.372876 0.000000
vt 0.372876 0.459438
vt 0.415695 0.000000
vt 0.415695 0.459438
vt 0.415695 0.459438
vt 0.458513 0.000000
vt 0.458513 0.459438
vt 0.511440 0.000000
vt 0.511440 0.459438
vt 0.554259 0.000000
vt 0.554259 0.459438
vt 0.830995 0.939174
vt 0.883922 0.479736
vt 0.883922 0.939174
vt 0.926741 0.939174
vt 0.623391 0.828724
vt 0.623391 0.552483
vt 0.679320 0.552483
vt 0.679320 0.828724
vt 0.554259 0.828724
vt 0.554259 0.552483
vt 0.679320 0.276241
vt 0.679320 0.000000
vt 0.735249 0.000000
vt 0.735249 0.276241
vt 0.610188 0.276241
vt 0.610188 0.000000
vt 0.554259 0.276241
vt 0.735249 0.552483
vt 0.610188 0.552483
vt 0.554259 0.552483
vt 0.333059 0.959395
vt 0.333059 0.683154
vt 0.402191 0.683154
vt 0.402191 0.959395
vt 0.277130 0.959395
vt 0.277130 0.683154
vt 0.302067 0.544832
vt 0.277130 0.536730
vt 0.156720 0.660877
vt 0.172132 0.682089
vt 0.333176 0.502014
vt 0.317764 0.480801
vt 0.106383 0.677232
vt 0.106383 0.703452
vt 0.383513 0.485658
vt 0.383513 0.459438
vt 0.024937 0.565131
vt 0.024937 0.618058
vt -0.000000 0.626160
vt -0.000000 0.557028
vt 0.056047 0.660877
vt 0.040635 0.682089
s 1
f 21/1/1 2/2/1 4/3/1 22/4/1
f 22/4/2 4/3/2 6/5/2 23/6/2
f 23/7/3 6/8/3 8/9/3 24/10/3
f 24/10/4 8/9/4 10/11/4 25/12/4
f 25/12/5 10/11/5 12/13/5 26/14/5
f 26/15/6 12/13/6 14/16/6 27/17/6
f 27/17/7 14/16/7 16/18/7 28/19/7
f 28/19/8 16/18/8 18/20/8 29/21/8
f 4/22/9 2/23/9 20/24/9 18/25/9 16/26/9 14/27/9 12/28/9 10/29/9 8/30/9 6/31/9
f 29/32/10 18/33/10 20/34/10 30/35/10
f 30/35/11 20/34/11 2/36/11 21/37/11
f 1/38/12 3/39/12 5/40/12 7/41/12 9/42/12 11/43/12 13/44/12 15/45/12 17/46/12 19/47/12
f 36/48/12 35/49/12 56/50/12 57/51/12
f 28/52/9 29/53/9 44/54/9 45/55/9
f 35/49/12 34/56/12 55/57/12 56/50/12
f 21/58/9 22/59/9 51/60/9 42/61/9
f 29/53/9 30/62/9 43/63/9 44/54/9
f 34/56/12 33/64/12 54/65/12 55/57/12
f 22/59/9 23/66/9 50/67/9 51/60/9
f 30/62/9 21/58/9 42/61/9 43/63/9
f 33/64/12 32/68/12 53/69/12 54/65/12
f 23/66/9 24/70/9 49/71/9 50/67/9
f 1/72/1 40/73/1 31/74/1 3/75/1
f 3/75/2 31/74/2 32/76/2 5/77/2
f 5/78/3 32/79/3 33/80/3 7/81/3
f 7/81/4 33/80/4 34/82/4 9/83/4
f 9/83/5 34/82/5 35/84/5 11/85/5
f 11/86/6 35/84/6 36/87/6 13/88/6
f 13/88/7 36/87/7 37/89/7 15/90/7
f 15/90/8 37/89/8 38/91/8 17/92/8
f 17/93/10 38/76/10 39/94/10 19/95/10
f 19/95/11 39/94/11 40/37/11 1/96/11
f 60/97/11 43/98/11 42/99/11 41/100/11
f 59/101/10 44/102/10 43/98/10 60/97/10
f 58/103/8 45/104/8 44/105/8 59/106/8
f 57/107/7 46/108/7 45/104/7 58/103/7
f 56/109/6 47/91/6 46/108/6 57/107/6
f 55/99/5 48/103/5 47/106/5 56/110/5
f 54/111/4 49/107/4 48/103/4 55/99/4
f 53/112/3 50/109/3 49/107/3 54/111/3
f 52/113/2 51/114/2 50/115/2 53/116/2
f 41/117/1 42/118/1 51/114/1 52/113/1
f 27/119/9 28/52/9 45/55/9 46/120/9
f 37/121/12 36/48/12 57/51/12 58/122/12
f 26/123/9 27/119/9 46/120/9 47/124/9
f 38/125/12 37/121/12 58/122/12 59/126/12
f 25/127/9 26/123/9 47/124/9 48/128/9
f 31/129/12 40/130/12 41/131/12 52/132/12
f 39/133/12 38/125/12 59/126/12 60/134/12
f 24/70/9 25/127/9 48/128/9 49/71/9
f 32/68/12 31/129/12 52/132/12 53/69/12
f 40/130/12 39/133/12 60/134/12 41/131/12
