# Blender 5.0.1
# www.blender.org
o pipe2
v -0.122949 0.205194 -0.529607
v -0.122949 0.205194 1.729356
v -0.002205 0.165962 -0.529607
v -0.002205 0.165962 1.729356
v 0.072419 0.063251 -0.529607
v 0.072419 0.063251 1.729356
v 0.072419 -0.063706 -0.529607
v 0.072419 -0.063706 1.729356
v -0.002205 -0.166417 -0.529607
v -0.002205 -0.166417 1.729356
v -0.122949 -0.205649 -0.529607
v -0.122949 -0.205649 1.729356
v -0.243693 -0.166417 -0.529607
v -0.243693 -0.166417 1.729356
v -0.318316 -0.063706 -0.529607
v -0.318316 -0.063706 1.729356
v -0.318316 0.063251 -0.529607
v -0.318316 0.063251 1.729356
v -0.243693 0.165962 -0.529607
v -0.243693 0.165962 1.729356
v 0.198124 0.205194 -1.070592
v 0.240867 0.165962 -0.957666
v 0.267284 0.063251 -0.887875
v 0.267284 -0.063706 -0.887875
v 0.240867 -0.166417 -0.957666
v 0.198124 -0.205649 -1.070592
v 0.155381 -0.166417 -1.183517
v 0.128964 -0.063706 -1.253309
v 0.128964 0.063251 -1.253309
v 0.155381 0.165962 -1.183517
v 0.789307 0.179608 -1.071980
v 0.790135 0.145262 -0.966279
v 0.790647 0.055345 -0.900952
v 0.790647 -0.055799 -0.900952
v 0.790135 -0.145717 -0.966279
v 0.789307 -0.180062 -1.071980
v 0.788478 -0.145717 -1.177682
v 0.787966 -0.055799 -1.243008
v 0.787966 0.055345 -1.243008
v 0.788478 0.145262 -1.177682
v -0.126209 0.276814 -0.531318
v 0.040039 0.223661 -0.524202
v 0.140738 0.084411 -0.524333
v 0.140738 -0.084865 -0.524333
v 0.040039 -0.224116 -0.524202
v -0.126209 -0.277269 -0.531318
v -0.288505 -0.220721 -0.543243
v -0.383699 -0.085872 -0.549017
v -0.384939 0.082382 -0.548003
v -0.286934 0.222001 -0.541134
v 0.194015 0.276693 -1.074326
v 0.265488 0.224382 -0.924141
v 0.305453 0.084870 -0.831141
v 0.305453 -0.085325 -0.831141
v 0.265488 -0.224836 -0.924141
v 0.194015 -0.277148 -1.074326
v 0.122222 -0.219459 -1.218589
v 0.083396 -0.086296 -1.303868
v 0.083950 0.081534 -1.306057
v 0.126028 0.221631 -1.217903
v -0.017254 -0.221961 -1.083869
v -0.084150 -0.277356 -0.696599
v 0.061879 -0.221885 -0.661723
v 0.148079 -0.083490 -0.644656
v 0.164964 0.221611 -0.844888
v -0.084150 0.276902 -0.696599
v 0.148079 0.083035 -0.644656
v -0.227184 0.223116 -0.736364
v -0.331564 0.082535 -0.771464
v -0.313044 -0.086280 -0.762271
v -0.229025 -0.222061 -0.736922
v -0.168218 -0.220049 -0.943171
v 0.075454 -0.277360 -0.965717
v -0.050505 -0.277175 -0.864227
v 0.164964 -0.222066 -0.844888
v 0.071181 -0.225163 -0.784295
v 0.215206 -0.083659 -0.771924
v 0.145424 -0.085757 -0.736269
v 0.061879 0.221430 -0.661723
v 0.071181 0.224708 -0.784295
v 0.075454 0.276905 -0.965717
v -0.050505 0.276720 -0.864227
v 0.215206 0.083204 -0.771924
v 0.145424 0.085302 -0.736269
v -0.015377 0.223634 -1.081875
v -0.166506 0.221538 -0.941594
v -0.103912 0.082030 -1.161360
v -0.237425 0.081836 -0.989021
v -0.071689 -0.087285 -1.151888
v -0.236257 -0.086054 -0.988781
vn 0.3090 0.9511 -0.0000
vn 0.8090 0.5878 -0.0000
vn 1.0000 -0.0000 -0.0000
vn 0.8090 -0.5878 -0.0000
vn 0.3090 -0.9511 -0.0000
vn -0.3090 -0.9511 -0.0000
vn -0.8090 -0.5878 -0.0000
vn -1.0000 -0.0000 -0.0000
vn -0.0000 -0.0000 1.0000
vn -0.8090 0.5878 -0.0000
vn -0.3090 0.9511 -0.0000
vn 0.0319 -0.5769 0.8162
vn 1.0000 -0.0000 -0.0078
vn 0.0413 0.9494 0.3113
vn 0.0156 -0.0000 -0.9999
vn 0.0413 -0.9494 0.3113
vn 0.0319 0.5769 0.8162
vn 0.0229 0.5720 -0.8200
vn 0.0369 -0.9449 -0.3253
vn 0.0250 -0.0000 0.9997
vn 0.0369 0.9449 -0.3253
vn 0.0229 -0.5720 -0.8200
vn 0.8297 -0.0000 -0.5582
vn 0.8976 0.1081 -0.4273
vn 0.8573 -0.1039 -0.5042
vn -0.0733 -0.0930 0.9930
vn 0.8093 0.1424 -0.5699
vn 0.9098 -0.0492 -0.4121
vn -0.0310 -0.0192 0.9993
vn 0.7520 -0.0063 -0.6591
vn -0.2752 -0.0045 0.9614
vn -0.0770 -0.0000 0.9970
vn 0.7943 -0.1647 -0.5848
vn -0.0617 0.0807 0.9948
vn -0.0310 0.0192 0.9993
vn 0.8873 -0.1274 -0.4432
vn 0.9098 0.0492 -0.4121
vn -0.2056 -0.1233 0.9708
vn -0.0632 -0.0464 0.9969
vn 0.8573 0.1039 -0.5042
vn -0.1914 0.1087 0.9755
vn -0.0632 0.0464 0.9969
vn -0.2333 -0.9376 -0.2578
vn 0.2059 -0.9453 0.2530
vn 0.4783 -0.5595 0.6769
vn 0.2059 0.9453 0.2530
vn 0.5486 -0.0000 0.8361
vn 0.4783 0.5595 0.6769
vn -0.2292 0.9402 -0.2520
vn -0.5154 0.6019 -0.6099
vn -0.6517 -0.0873 -0.7535
vn -0.5804 -0.5472 -0.6030
vn -0.8102 -0.5251 -0.2603
vn -0.9313 -0.0645 -0.3584
vn -0.7724 0.5672 -0.2859
vn -0.3501 0.9321 -0.0930
vn 0.8612 0.5067 0.0398
vn 0.9996 -0.0000 -0.0290
vn 0.3490 0.9351 0.0616
vn 0.8612 -0.5067 0.0398
vn 0.3490 -0.9351 0.0616
vn -0.3550 -0.9300 -0.0951
vn -0.3274 -0.9407 -0.0889
vn 0.3206 -0.9452 0.0610
vn 0.8241 -0.5600 0.0854
vn 0.3206 0.9452 0.0610
vn 0.9981 -0.0000 0.0609
vn 0.8241 0.5600 0.0854
vn -0.3226 0.9424 -0.0880
vn -0.7778 0.5930 -0.2083
vn -0.9601 -0.0629 -0.2726
vn -0.7934 -0.5543 -0.2514
vn -0.5919 -0.5275 -0.6093
vn -0.7444 -0.0928 -0.6612
vn -0.6013 0.5859 -0.5432
vn -0.2402 0.9335 -0.2664
vn 0.4460 0.5178 0.7300
vn 0.4550 -0.0000 0.8905
vn 0.2150 0.9372 0.2747
vn 0.4460 -0.5178 0.7300
vn 0.2150 -0.9372 0.2747
vn -0.2441 -0.9311 -0.2710
vt 0.042527 0.878796
vt 0.042527 0.003491
vt 0.091719 0.003056
vt 0.091719 0.878362
vt 0.128785 0.000000
vt 0.128785 0.875305
vt 0.257416 0.878392
vt 0.257416 0.000000
vt 0.298592 0.001142
vt 0.298592 0.879534
vt 0.347958 0.001054
vt 0.347958 0.879446
vt 0.128785 0.876724
vt 0.128785 0.002647
vt 0.171608 -0.000000
vt 0.171608 0.874077
vt 0.220741 0.000562
vt 0.220741 0.874639
vt 0.257416 0.004117
vt 0.257416 0.878194
vt 0.347958 0.871924
vt 0.347958 0.004960
vt 0.387658 0.000077
vt 0.387658 0.867041
vt 0.947116 0.400625
vt 0.947116 0.449943
vt 0.918145 0.489718
vt 0.871269 0.504758
vt 0.824392 0.489316
vt 0.795421 0.449293
vt 0.795421 0.399975
vt 0.824392 0.360199
vt 0.871269 0.345160
vt 0.918145 0.360601
vt 0.437066 -0.000000
vt 0.437066 0.866965
vt -0.000000 0.876443
vt -0.000000 0.001138
vt 0.824779 0.880740
vt 0.783598 0.893153
vt 0.790673 0.680332
vt 0.826836 0.678107
vt 0.795421 0.586662
vt 0.795421 0.544433
vt 0.817096 0.513148
vt 0.852167 0.504758
vt 0.887239 0.522466
vt 0.908914 0.559509
vt 0.908914 0.601737
vt 0.887239 0.633022
vt 0.852167 0.641412
vt 0.817096 0.623705
vt 0.874130 0.012549
vt 0.919104 0.031738
vt 0.913904 0.242163
vt 0.871707 0.239285
vt 0.548116 0.910199
vt 0.498705 0.910199
vt 0.501783 0.653692
vt 0.545039 0.653692
vt 0.912809 0.709187
vt 0.954747 0.696774
vt 0.957657 0.919914
vt 0.918216 0.916799
vt 0.912809 0.893153
vt 0.874133 0.880740
vt 0.870043 0.678107
vt 0.903790 0.680332
vt 0.458732 0.899495
vt 0.466788 0.653096
vt 1.000000 0.678107
vt 1.000000 0.917553
vt 0.832000 -0.000000
vt 0.832000 0.242221
vt 0.588090 0.899495
vt 0.580033 0.653096
vt 0.763678 0.762989
vt 0.751978 0.723494
vt 0.767914 0.702274
vt 0.783598 0.755220
vt 0.676871 0.715250
vt 0.642153 0.749650
vt 0.626652 0.742363
vt 0.669229 0.694282
vt 0.718821 0.705260
vt 0.723867 0.678107
vt 0.683926 0.172827
vt 0.731105 0.187196
vt 0.733394 0.214862
vt 0.668950 0.196367
vt 0.491590 0.928037
vt 0.437066 0.911126
vt 0.775925 0.042272
vt 0.728746 0.027903
vt 0.728154 -0.000000
vt 0.793024 0.020294
vt 0.556907 0.928239
vt 0.777833 0.171144
vt 0.806262 0.130800
vt 0.832000 0.140135
vt 0.793945 0.193359
vt 0.682018 0.043956
vt 0.653589 0.084299
vt 0.627049 0.075665
vt 0.664955 0.021873
vt 0.639627 0.834815
vt 0.672784 0.853050
vt 0.667351 0.880427
vt 0.626652 0.857074
vt 0.805533 0.081575
vt 0.832000 0.073759
vt 0.654317 0.133524
vt 0.627885 0.142292
vt 0.714733 0.843059
vt 0.720270 0.866576
vt 0.749452 0.808659
vt 0.765265 0.817854
vt 0.502726 0.229454
vt 0.560271 0.251710
vt 0.539569 0.324003
vt 0.483856 0.288907
vt 0.455718 0.205370
vt 0.437066 0.251432
vt 0.620578 0.655835
vt 0.626389 0.718331
vt 0.588090 0.718331
vt 0.589959 0.653096
vt 0.508316 0.556759
vt 0.564825 0.531965
vt 0.583905 0.577514
vt 0.528432 0.615711
vt 0.957252 0.512221
vt 0.941557 0.575160
vt 0.908914 0.568954
vt 0.924923 0.504758
vt 0.607314 0.517103
vt 0.626652 0.553899
vt 0.462162 0.580540
vt 0.485153 0.653096
vt 0.696569 0.605858
vt 0.766074 0.587142
vt 0.786523 0.651713
vt 0.726995 0.678107
vt 0.794679 0.274314
vt 0.728817 0.287087
vt 0.728817 0.214863
vt 0.794135 0.214890
vt 0.603018 0.264031
vt 0.580244 0.345160
vt 0.565546 0.093624
vt 0.610209 0.085824
vt 0.627049 0.177314
vt 0.584047 0.175188
vt 0.626652 0.432216
vt 0.675031 0.437408
vt 0.679750 0.528294
vt 0.627239 0.524862
vt 0.744491 0.436899
vt 0.742523 0.519966
vt 0.795421 0.436489
vt 0.790693 0.502859
vt 0.563233 0.450208
vt 0.607712 0.461117
vt 0.590239 0.492108
vt 0.544118 0.494015
vt 0.675687 0.216662
vt 0.677567 0.270659
vt 0.642111 0.274188
vt 0.640180 0.218721
vt 0.503239 0.435150
vt 0.484498 0.498910
vt 0.674832 0.334384
vt 0.627049 0.336436
vt 0.455650 0.123572
vt 0.505288 0.107719
vt 0.525395 0.171006
vt 0.475090 0.166941
vt 0.488415 0.043624
vt 0.549248 0.016569
vt 0.437066 0.072756
vt 0.724477 0.269751
vt 0.728817 0.336436
vt 0.518780 0.370665
vt 0.580338 0.398934
vt 0.722566 0.214862
vt 0.626652 0.418405
vt 0.468486 0.345160
vt 0.453392 0.423157
vt 0.679352 0.348120
vt 0.745097 0.357635
vt 0.626652 0.345160
vt 0.593870 -0.000000
vt 0.794368 0.337363
vt 0.729029 0.337994
vt 0.437066 0.504781
vt 0.982828 0.516972
vt 0.966738 0.581494
vt 0.982828 0.642163
vt 0.949337 0.633868
s 0
f 1/1/1 2/2/1 4/3/1 3/4/1
f 3/4/2 4/3/2 6/5/2 5/6/2
f 5/7/3 6/8/3 8/9/3 7/10/3
f 7/10/4 8/9/4 10/11/4 9/12/4
f 9/13/5 10/14/5 12/15/5 11/16/5
f 11/16/6 12/15/6 14/17/6 13/18/6
f 13/18/7 14/17/7 16/19/7 15/20/7
f 15/21/8 16/22/8 18/23/8 17/24/8
f 4/25/9 2/26/9 20/27/9 18/28/9 16/29/9 14/30/9 12/31/9 10/32/9 8/33/9 6/34/9
f 17/24/10 18/23/10 20/35/10 19/36/10
f 19/37/11 20/38/11 2/2/11 1/1/11
f 24/39/12 25/40/12 35/41/12 34/42/12
f 31/43/13 32/44/13 33/45/13 34/46/13 35/47/13 36/48/13 37/49/13 38/50/13 39/51/13 40/52/13
f 21/53/14 22/54/14 32/55/14 31/56/14
f 28/57/15 29/58/15 39/59/15 38/60/15
f 25/61/16 26/62/16 36/63/16 35/64/16
f 22/65/17 23/66/17 33/67/17 32/68/17
f 29/58/18 30/69/18 40/70/18 39/59/18
f 26/62/19 27/71/19 37/72/19 36/63/19
f 23/66/20 24/39/20 34/42/20 33/67/20
f 30/73/21 21/53/21 31/56/21 40/74/21
f 27/75/22 28/57/22 38/60/22 37/76/22
f 24/77/23 23/78/23 53/79/23 54/80/23
f 21/81/24 30/82/24 60/83/24 51/84/24
f 23/78/25 22/85/25 52/86/25 53/79/25
f 11/87/26 13/88/26 47/89/26 46/90/26
f 30/69/27 29/58/27 59/91/27 60/92/27
f 22/85/28 21/81/28 51/84/28 52/86/28
f 1/93/29 3/94/29 42/95/29 41/96/29
f 29/58/30 28/57/30 58/97/30 59/91/30
f 15/98/31 17/99/31 49/100/31 48/101/31
f 5/102/32 7/103/32 44/104/32 43/105/32
f 28/106/33 27/107/33 57/108/33 58/109/33
f 19/110/34 1/93/34 41/96/34 50/111/34
f 9/112/35 11/87/35 46/90/35 45/113/35
f 27/107/36 26/114/36 56/115/36 57/108/36
f 26/114/37 25/116/37 55/117/37 56/115/37
f 13/88/38 15/98/38 48/101/38 47/89/38
f 3/94/39 5/102/39 43/105/39 42/95/39
f 25/116/40 24/77/40 54/80/40 55/117/40
f 17/99/41 19/110/41 50/111/41 49/100/41
f 7/103/42 9/112/42 45/113/42 44/104/42
f 73/118/43 61/119/43 57/120/43 56/121/43
f 75/122/44 73/118/44 56/121/44 55/123/44
f 77/124/45 75/125/45 55/126/45 54/127/45
f 81/128/46 65/129/46 52/130/46 51/131/46
f 83/132/47 77/133/47 54/134/47 53/135/47
f 65/129/48 83/136/48 53/137/48 52/130/48
f 85/138/49 81/128/49 51/131/49 60/139/49
f 87/140/50 85/141/50 60/142/50 59/143/50
f 89/144/51 87/145/51 59/146/51 58/147/51
f 61/119/52 89/148/52 58/149/52 57/120/52
f 71/150/53 70/151/53 90/152/53 72/153/53
f 70/154/54 69/155/54 88/156/54 90/157/54
f 69/155/55 68/158/55 86/159/55 88/156/55
f 68/158/56 66/160/56 82/161/56 86/159/56
f 79/162/57 67/163/57 84/164/57 80/165/57
f 67/166/58 64/167/58 78/168/58 84/169/58
f 66/170/59 79/162/59 80/165/59 82/171/59
f 64/167/60 63/172/60 76/173/60 78/168/60
f 63/174/61 62/175/61 74/176/61 76/177/61
f 62/175/62 71/150/62 72/153/62 74/176/62
f 46/178/63 47/179/63 71/150/63 62/175/63
f 45/180/64 46/178/64 62/175/64 63/174/64
f 44/181/65 45/182/65 63/172/65 64/167/65
f 41/183/66 42/184/66 79/162/66 66/170/66
f 43/185/67 44/181/67 64/167/67 67/166/67
f 42/184/68 43/186/68 67/163/68 79/162/68
f 50/187/69 41/183/69 66/170/69 68/188/69
f 49/189/70 50/190/70 68/158/70 69/155/70
f 48/191/71 49/189/71 69/155/71 70/154/71
f 47/179/72 48/192/72 70/151/72 71/150/72
f 72/153/73 90/152/73 89/148/73 61/119/73
f 90/193/74 88/194/74 87/145/74 89/144/74
f 88/156/75 86/159/75 85/141/75 87/140/75
f 86/195/76 82/171/76 81/128/76 85/138/76
f 80/165/77 84/164/77 83/136/77 65/129/77
f 84/196/78 78/197/78 77/133/78 83/132/78
f 82/171/79 80/165/79 65/129/79 81/128/79
f 78/197/80 76/198/80 75/199/80 77/133/80
f 76/177/81 74/176/81 73/118/81 75/122/81
f 74/176/82 72/153/82 61/119/82 73/118/82
