# Blender 5.0.1
# www.blender.org
o Cylinder
v 0.000000 0.815518 0.000000
v 0.000000 1.000000 2.000000
v 0.159100 0.799848 0.000000
v 0.195090 0.980785 2.000000
v 0.312085 0.753441 0.000000
v 0.382683 0.923879 2.000000
v 0.453078 0.678079 0.000000
v 0.555570 0.831470 2.000000
v 0.576658 0.576659 0.000000
v 0.707107 0.707107 2.000000
v 0.678079 0.453078 0.000000
v 0.831470 0.555570 2.000000
v 0.753441 0.312085 0.000000
v 0.923879 0.382683 2.000000
v 0.799848 0.159100 0.000000
v 0.980785 0.195090 2.000000
v 0.815518 0.000000 0.000000
v 1.000000 0.000000 2.000000
v 0.799848 -0.159100 0.000000
v 0.980785 -0.195090 2.000000
v 0.753441 -0.312085 0.000000
v 0.923879 -0.382684 2.000000
v 0.678079 -0.453078 0.000000
v 0.831470 -0.555570 2.000000
v 0.576658 -0.576658 0.000000
v 0.707107 -0.707107 2.000000
v 0.453078 -0.678079 0.000000
v 0.555570 -0.831470 2.000000
v 0.312085 -0.753441 0.000000
v 0.382683 -0.923880 2.000000
v 0.159100 -0.799848 0.000000
v 0.195090 -0.980785 2.000000
v 0.000000 -0.815518 0.000000
v 0.000000 -1.000000 2.000000
v -0.159100 -0.799848 0.000000
v -0.195090 -0.980785 2.000000
v -0.312085 -0.753441 0.000000
v -0.382683 -0.923880 2.000000
v -0.453078 -0.678079 0.000000
v -0.555570 -0.831470 2.000000
v -0.576658 -0.576658 0.000000
v -0.707107 -0.707107 2.000000
v -0.678079 -0.453078 0.000000
v -0.831470 -0.555570 2.000000
v -0.753441 -0.312085 0.000000
v -0.923879 -0.382684 2.000000
v -0.799848 -0.159100 0.000000
v -0.980785 -0.195090 2.000000
v -0.815518 0.000000 0.000000
v -1.000000 0.000000 2.000000
v -0.799848 0.159100 0.000000
v -0.980785 0.195090 2.000000
v -0.753441 0.312085 0.000000
v -0.923879 0.382683 2.000000
v -0.678079 0.453078 0.000000
v -0.831470 0.555570 2.000000
v -0.576658 0.576659 0.000000
v -0.707107 0.707107 2.000000
v -0.453078 0.678079 0.000000
v -0.555570 0.831470 2.000000
v -0.312085 0.753441 0.000000
v -0.382683 0.923879 2.000000
v -0.159100 0.799848 0.000000
v -0.195090 0.980785 2.000000
v 0.000000 0.921548 0.400000
v 0.000000 0.979209 0.800000
v 0.000000 1.000000 1.200000
v 0.000000 1.000000 1.600000
v 0.195090 0.980785 1.600000
v 0.195090 0.980785 1.200000
v 0.191034 0.960394 0.800000
v 0.179785 0.903840 0.400000
v 0.382683 0.923880 1.600000
v 0.382683 0.923880 1.200000
v 0.374727 0.904672 0.800000
v 0.352661 0.851399 0.400000
v 0.555570 0.831470 1.600000
v 0.555570 0.831470 1.200000
v 0.544020 0.814183 0.800000
v 0.511984 0.766239 0.400000
v 0.707107 0.707107 1.600000
v 0.707107 0.707107 1.200000
v 0.692406 0.692406 0.800000
v 0.651633 0.651633 0.400000
v 0.831470 0.555570 1.600000
v 0.831470 0.555570 1.200000
v 0.814183 0.544020 0.800000
v 0.766239 0.511985 0.400000
v 0.923879 0.382683 1.600000
v 0.923879 0.382683 1.200000
v 0.904671 0.374727 0.800000
v 0.851399 0.352661 0.400000
v 0.980785 0.195090 1.600000
v 0.980785 0.195090 1.200000
v 0.960394 0.191034 0.800000
v 0.903840 0.179785 0.400000
v 1.000000 0.000000 1.600000
v 1.000000 0.000000 1.200000
v 0.979209 0.000000 0.800000
v 0.921548 0.000000 0.400000
v 0.980785 -0.195090 1.600000
v 0.980785 -0.195090 1.200000
v 0.960394 -0.191034 0.800000
v 0.903840 -0.179785 0.400000
v 0.923879 -0.382683 1.600000
v 0.923879 -0.382683 1.200000
v 0.904671 -0.374727 0.800000
v 0.851399 -0.352661 0.400000
v 0.831470 -0.555570 1.600000
v 0.831470 -0.555570 1.200000
v 0.814183 -0.544020 0.800000
v 0.766239 -0.511984 0.400000
v 0.707107 -0.707107 1.600000
v 0.707107 -0.707107 1.200000
v 0.692406 -0.692406 0.800000
v 0.651633 -0.651633 0.400000
v 0.555570 -0.831470 1.600000
v 0.555570 -0.831470 1.200000
v 0.544020 -0.814183 0.800000
v 0.511984 -0.766239 0.400000
v 0.382683 -0.923880 1.600000
v 0.382683 -0.923880 1.200000
v 0.374727 -0.904672 0.800000
v 0.352661 -0.851399 0.400000
v 0.195090 -0.980785 1.600000
v 0.195090 -0.980785 1.200000
v 0.191034 -0.960394 0.800000
v 0.179785 -0.903840 0.400000
v 0.000000 -1.000000 1.600000
v 0.000000 -1.000000 1.200000
v 0.000000 -0.979209 0.800000
v 0.000000 -0.921548 0.400000
v -0.195090 -0.980785 1.600000
v -0.195090 -0.980785 1.200000
v -0.191034 -0.960394 0.800000
v -0.179785 -0.903840 0.400000
v -0.382683 -0.923880 1.600000
v -0.382683 -0.923880 1.200000
v -0.374727 -0.904672 0.800000
v -0.352661 -0.851399 0.400000
v -0.555570 -0.831470 1.600000
v -0.555570 -0.831470 1.200000
v -0.544020 -0.814183 0.800000
v -0.511984 -0.766239 0.400000
v -0.707107 -0.707107 1.600000
v -0.707107 -0.707107 1.200000
v -0.692406 -0.692406 0.800000
v -0.651633 -0.651633 0.400000
v -0.831470 -0.555570 1.600000
v -0.831470 -0.555570 1.200000
v -0.814183 -0.544020 0.800000
v -0.766239 -0.511984 0.400000
v -0.923879 -0.382683 1.600000
v -0.923879 -0.382683 1.200000
v -0.904671 -0.374727 0.800000
v -0.851399 -0.352661 0.400000
v -0.980785 -0.195090 1.600000
v -0.980785 -0.195090 1.200000
v -0.960394 -0.191034 0.800000
v -0.903840 -0.179785 0.400000
v -1.000000 0.000000 1.600000
v -1.000000 0.000000 1.200000
v -0.979209 0.000000 0.800000
v -0.921548 0.000000 0.400000
v -0.980785 0.195090 1.600000
v -0.980785 0.195090 1.200000
v -0.960394 0.191034 0.800000
v -0.903840 0.179785 0.400000
v -0.923879 0.382683 1.600000
v -0.923879 0.382683 1.200000
v -0.904671 0.374727 0.800000
v -0.851399 0.352661 0.400000
v -0.831470 0.555570 1.600000
v -0.831470 0.555570 1.200000
v -0.814183 0.544020 0.800000
v -0.766239 0.511985 0.400000
v -0.707107 0.707107 1.600000
v -0.707107 0.707107 1.200000
v -0.692406 0.692406 0.800000
v -0.651633 0.651633 0.400000
v -0.555570 0.831470 1.600000
v -0.555570 0.831470 1.200000
v -0.544020 0.814183 0.800000
v -0.511984 0.766239 0.400000
v -0.382683 0.923880 1.600000
v -0.382683 0.923880 1.200000
v -0.374727 0.904672 0.800000
v -0.352661 0.851399 0.400000
v -0.195090 0.980785 1.600000
v -0.195090 0.980785 1.200000
v -0.191034 0.960394 0.800000
v -0.179785 0.903840 0.400000
vn -0.0000 0.9666 -0.2562
vn -0.0000 1.0000 -0.0000
vn 0.1886 0.9480 -0.2562
vn 0.1951 0.9808 -0.0000
vn 0.3699 0.8930 -0.2562
vn 0.3827 0.9239 -0.0000
vn 0.5370 0.8037 -0.2562
vn 0.5556 0.8315 -0.0000
vn 0.6835 0.6835 -0.2562
vn 0.7071 0.7071 -0.0000
vn 0.8037 0.5370 -0.2562
vn 0.8315 0.5556 -0.0000
vn 0.8930 0.3699 -0.2562
vn 0.9239 0.3827 -0.0000
vn 0.9480 0.1886 -0.2562
vn 0.9808 0.1951 -0.0000
vn 0.9666 -0.0000 -0.2562
vn 1.0000 -0.0000 -0.0000
vn 0.9480 -0.1886 -0.2562
vn 0.9808 -0.1951 -0.0000
vn 0.8930 -0.3699 -0.2562
vn 0.9239 -0.3827 -0.0000
vn 0.8037 -0.5370 -0.2562
vn 0.8315 -0.5556 -0.0000
vn 0.6835 -0.6835 -0.2562
vn 0.7071 -0.7071 -0.0000
vn 0.5370 -0.8037 -0.2562
vn 0.5556 -0.8315 -0.0000
vn 0.3699 -0.8930 -0.2562
vn 0.3827 -0.9239 -0.0000
vn 0.1886 -0.9480 -0.2562
vn 0.1951 -0.9808 -0.0000
vn -0.0000 -0.9666 -0.2562
vn -0.0000 -1.0000 -0.0000
vn -0.1886 -0.9480 -0.2562
vn -0.1951 -0.9808 -0.0000
vn -0.3699 -0.8930 -0.2562
vn -0.3827 -0.9239 -0.0000
vn -0.5370 -0.8037 -0.2562
vn -0.5556 -0.8315 -0.0000
vn -0.6835 -0.6835 -0.2562
vn -0.7071 -0.7071 -0.0000
vn -0.8037 -0.5370 -0.2562
vn -0.8315 -0.5556 -0.0000
vn -0.8930 -0.3699 -0.2562
vn -0.9239 -0.3827 -0.0000
vn -0.9480 -0.1886 -0.2562
vn -0.9808 -0.1951 -0.0000
vn -0.9666 -0.0000 -0.2562
vn -1.0000 -0.0000 -0.0000
vn -0.9480 0.1886 -0.2562
vn -0.9808 0.1951 -0.0000
vn -0.8930 0.3699 -0.2562
vn -0.9239 0.3827 -0.0000
vn -0.8037 0.5370 -0.2562
vn -0.8315 0.5556 -0.0000
vn -0.6835 0.6835 -0.2562
vn -0.7071 0.7071 -0.0000
vn -0.5370 0.8037 -0.2562
vn -0.5556 0.8315 -0.0000
vn -0.3699 0.8930 -0.2562
vn -0.3827 0.9239 -0.0000
vn -0.1886 0.9480 -0.2562
vn -0.1951 0.9808 -0.0000
vn -0.0000 0.9800 -0.1991
vn -0.0000 0.9953 -0.0971
vn -0.0000 0.9997 -0.0259
vn 0.1950 0.9805 -0.0259
vn 0.1942 0.9761 -0.0971
vn 0.1912 0.9612 -0.1991
vn 0.3826 0.9236 -0.0259
vn 0.3809 0.9195 -0.0971
vn 0.3750 0.9054 -0.1991
vn 0.5554 0.8312 -0.0259
vn 0.5529 0.8275 -0.0971
vn 0.5444 0.8148 -0.1991
vn 0.7069 0.7069 -0.0259
vn 0.7038 0.7038 -0.0971
vn 0.6930 0.6930 -0.1991
vn 0.8312 0.5554 -0.0259
vn 0.8275 0.5529 -0.0971
vn 0.8148 0.5444 -0.1991
vn 0.9236 0.3826 -0.0259
vn 0.9195 0.3809 -0.0971
vn 0.9054 0.3750 -0.1991
vn 0.9805 0.1950 -0.0259
vn 0.9761 0.1942 -0.0971
vn 0.9612 0.1912 -0.1991
vn 0.9997 -0.0000 -0.0259
vn 0.9953 -0.0000 -0.0971
vn 0.9800 -0.0000 -0.1991
vn 0.9805 -0.1950 -0.0259
vn 0.9761 -0.1942 -0.0971
vn 0.9612 -0.1912 -0.1991
vn 0.9236 -0.3826 -0.0259
vn 0.9195 -0.3809 -0.0971
vn 0.9054 -0.3750 -0.1991
vn 0.8312 -0.5554 -0.0259
vn 0.8275 -0.5529 -0.0971
vn 0.8148 -0.5444 -0.1991
vn 0.7069 -0.7069 -0.0259
vn 0.7038 -0.7038 -0.0971
vn 0.6930 -0.6930 -0.1991
vn 0.5554 -0.8312 -0.0259
vn 0.5529 -0.8275 -0.0971
vn 0.5444 -0.8148 -0.1991
vn 0.3826 -0.9236 -0.0259
vn 0.3809 -0.9195 -0.0971
vn 0.3750 -0.9054 -0.1991
vn 0.1950 -0.9805 -0.0259
vn 0.1942 -0.9761 -0.0971
vn 0.1912 -0.9612 -0.1991
vn -0.0000 -0.9997 -0.0259
vn -0.0000 -0.9953 -0.0971
vn -0.0000 -0.9800 -0.1991
vn -0.1950 -0.9805 -0.0259
vn -0.1942 -0.9761 -0.0971
vn -0.1912 -0.9612 -0.1991
vn -0.3826 -0.9236 -0.0259
vn -0.3809 -0.9195 -0.0971
vn -0.3750 -0.9054 -0.1991
vn -0.5554 -0.8312 -0.0259
vn -0.5529 -0.8275 -0.0971
vn -0.5444 -0.8148 -0.1991
vn -0.7069 -0.7069 -0.0259
vn -0.7038 -0.7038 -0.0971
vn -0.6930 -0.6930 -0.1991
vn -0.8312 -0.5554 -0.0259
vn -0.8275 -0.5529 -0.0971
vn -0.8148 -0.5444 -0.1991
vn -0.9236 -0.3826 -0.0259
vn -0.9195 -0.3809 -0.0971
vn -0.9054 -0.3750 -0.1991
vn -0.9805 -0.1950 -0.0259
vn -0.9761 -0.1942 -0.0971
vn -0.9612 -0.1912 -0.1991
vn -0.9997 -0.0000 -0.0259
vn -0.9953 -0.0000 -0.0971
vn -0.9800 -0.0000 -0.1991
vn -0.9805 0.1950 -0.0259
vn -0.9761 0.1942 -0.0971
vn -0.9612 0.1912 -0.1991
vn -0.9236 0.3826 -0.0259
vn -0.9195 0.3809 -0.0971
vn -0.9054 0.3750 -0.1991
vn -0.8312 0.5554 -0.0259
vn -0.8275 0.5529 -0.0971
vn -0.8148 0.5444 -0.1991
vn -0.7069 0.7069 -0.0259
vn -0.7038 0.7038 -0.0971
vn -0.6930 0.6930 -0.1991
vn -0.5554 0.8312 -0.0259
vn -0.5529 0.8275 -0.0971
vn -0.5444 0.8148 -0.1991
vn -0.3826 0.9236 -0.0259
vn -0.3809 0.9195 -0.0971
vn -0.3750 0.9054 -0.1991
vn -0.1950 0.9805 -0.0259
vn -0.1942 0.9761 -0.0971
vn -0.1912 0.9612 -0.1991
vt 1.000000 0.800000
vt 1.000000 1.000000
vt 0.968750 1.000000
vt 0.968750 0.800000
vt 0.937500 1.000000
vt 0.937500 0.800000
vt 0.906250 1.000000
vt 0.906250 0.800000
vt 0.875000 1.000000
vt 0.875000 0.800000
vt 0.843750 1.000000
vt 0.843750 0.800000
vt 0.812500 1.000000
vt 0.812500 0.800000
vt 0.781250 1.000000
vt 0.781250 0.800000
vt 0.750000 1.000000
vt 0.750000 0.800000
vt 0.718750 1.000000
vt 0.718750 0.800000
vt 0.687500 1.000000
vt 0.687500 0.800000
vt 0.656250 1.000000
vt 0.656250 0.800000
vt 0.625000 1.000000
vt 0.625000 0.800000
vt 0.593750 1.000000
vt 0.593750 0.800000
vt 0.562500 1.000000
vt 0.562500 0.800000
vt 0.531250 1.000000
vt 0.531250 0.800000
vt 0.500000 1.000000
vt 0.500000 0.800000
vt 0.468750 1.000000
vt 0.468750 0.800000
vt 0.437500 1.000000
vt 0.437500 0.800000
vt 0.406250 1.000000
vt 0.406250 0.800000
vt 0.375000 1.000000
vt 0.375000 0.800000
vt 0.343750 1.000000
vt 0.343750 0.800000
vt 0.312500 1.000000
vt 0.312500 0.800000
vt 0.281250 1.000000
vt 0.281250 0.800000
vt 0.250000 1.000000
vt 0.250000 0.800000
vt 0.218750 1.000000
vt 0.218750 0.800000
vt 0.187500 1.000000
vt 0.187500 0.800000
vt 0.156250 1.000000
vt 0.156250 0.800000
vt 0.125000 1.000000
vt 0.125000 0.800000
vt 0.093750 1.000000
vt 0.093750 0.800000
vt 0.062500 1.000000
vt 0.062500 0.800000
vt 0.031250 1.000000
vt 0.031250 0.800000
vt 0.000000 1.000000
vt 0.000000 0.800000
vt 0.031250 0.000000
vt 0.031250 0.200000
vt 0.000000 0.200000
vt 0.000000 0.000000
vt 0.031250 0.400000
vt 0.000000 0.400000
vt 0.031250 0.600000
vt 0.000000 0.600000
vt 0.062500 0.000000
vt 0.062500 0.200000
vt 0.062500 0.400000
vt 0.062500 0.600000
vt 0.093750 0.000000
vt 0.093750 0.200000
vt 0.093750 0.400000
vt 0.093750 0.600000
vt 0.125000 0.000000
vt 0.125000 0.200000
vt 0.125000 0.400000
vt 0.125000 0.600000
vt 0.156250 0.000000
vt 0.156250 0.200000
vt 0.156250 0.400000
vt 0.156250 0.600000
vt 0.187500 0.000000
vt 0.187500 0.200000
vt 0.187500 0.400000
vt 0.187500 0.600000
vt 0.218750 0.000000
vt 0.218750 0.200000
vt 0.218750 0.400000
vt 0.218750 0.600000
vt 0.250000 0.000000
vt 0.250000 0.200000
vt 0.250000 0.400000
vt 0.250000 0.600000
vt 0.281250 0.000000
vt 0.281250 0.200000
vt 0.281250 0.400000
vt 0.281250 0.600000
vt 0.312500 0.000000
vt 0.312500 0.200000
vt 0.312500 0.400000
vt 0.312500 0.600000
vt 0.343750 0.000000
vt 0.343750 0.200000
vt 0.343750 0.400000
vt 0.343750 0.600000
vt 0.375000 0.000000
vt 0.375000 0.200000
vt 0.375000 0.400000
vt 0.375000 0.600000
vt 0.406250 0.000000
vt 0.406250 0.200000
vt 0.406250 0.400000
vt 0.406250 0.600000
vt 0.437500 0.000000
vt 0.437500 0.200000
vt 0.437500 0.400000
vt 0.437500 0.600000
vt 0.468750 0.000000
vt 0.468750 0.200000
vt 0.468750 0.400000
vt 0.468750 0.600000
vt 0.500000 0.000000
vt 0.500000 0.200000
vt 0.500000 0.400000
vt 0.500000 0.600000
vt 0.531250 0.000000
vt 0.531250 0.200000
vt 0.531250 0.400000
vt 0.531250 0.600000
vt 0.562500 0.000000
vt 0.562500 0.200000
vt 0.562500 0.400000
vt 0.562500 0.600000
vt 0.593750 0.000000
vt 0.593750 0.200000
vt 0.593750 0.400000
vt 0.593750 0.600000
vt 0.625000 0.000000
vt 0.625000 0.200000
vt 0.625000 0.400000
vt 0.625000 0.600000
vt 0.656250 0.000000
vt 0.656250 0.200000
vt 0.656250 0.400000
vt 0.656250 0.600000
vt 0.687500 0.000000
vt 0.687500 0.200000
vt 0.687500 0.400000
vt 0.687500 0.600000
vt 0.718750 0.000000
vt 0.718750 0.200000
vt 0.718750 0.400000
vt 0.718750 0.600000
vt 0.750000 0.000000
vt 0.750000 0.200000
vt 0.750000 0.400000
vt 0.750000 0.600000
vt 0.781250 0.000000
vt 0.781250 0.200000
vt 0.781250 0.400000
vt 0.781250 0.600000
vt 0.812500 0.000000
vt 0.812500 0.200000
vt 0.812500 0.400000
vt 0.812500 0.600000
vt 0.843750 0.000000
vt 0.843750 0.200000
vt 0.843750 0.400000
vt 0.843750 0.600000
vt 0.875000 0.000000
vt 0.875000 0.200000
vt 0.875000 0.400000
vt 0.875000 0.600000
vt 0.906250 0.000000
vt 0.906250 0.200000
vt 0.906250 0.400000
vt 0.906250 0.600000
vt 0.937500 0.000000
vt 0.937500 0.200000
vt 0.937500 0.400000
vt 0.937500 0.600000
vt 0.968750 0.000000
vt 0.968750 0.200000
vt 0.968750 0.400000
vt 0.968750 0.600000
vt 1.000000 0.000000
vt 1.000000 0.200000
vt 1.000000 0.400000
vt 1.000000 0.600000
s 1
f 68/1/2 2/2/2 4/3/4 69/4/4
f 69/4/4 4/3/4 6/5/6 73/6/6
f 73/6/6 6/5/6 8/7/8 77/8/8
f 77/8/8 8/7/8 10/9/10 81/10/10
f 81/10/10 10/9/10 12/11/12 85/12/12
f 85/12/12 12/11/12 14/13/14 89/14/14
f 89/14/14 14/13/14 16/15/16 93/16/16
f 93/16/16 16/15/16 18/17/18 97/18/18
f 97/18/18 18/17/18 20/19/20 101/20/20
f 101/20/20 20/19/20 22/21/22 105/22/22
f 105/22/22 22/21/22 24/23/24 109/24/24
f 109/24/24 24/23/24 26/25/26 113/26/26
f 113/26/26 26/25/26 28/27/28 117/28/28
f 117/28/28 28/27/28 30/29/30 121/30/30
f 121/30/30 30/29/30 32/31/32 125/32/32
f 125/32/32 32/31/32 34/33/34 129/34/34
f 129/34/34 34/33/34 36/35/36 133/36/36
f 133/36/36 36/35/36 38/37/38 137/38/38
f 137/38/38 38/37/38 40/39/40 141/40/40
f 141/40/40 40/39/40 42/41/42 145/42/42
f 145/42/42 42/41/42 44/43/44 149/44/44
f 149/44/44 44/43/44 46/45/46 153/46/46
f 153/46/46 46/45/46 48/47/48 157/48/48
f 157/48/48 48/47/48 50/49/50 161/50/50
f 161/50/50 50/49/50 52/51/52 165/52/52
f 165/52/52 52/51/52 54/53/54 169/54/54
f 169/54/54 54/53/54 56/55/56 173/56/56
f 173/56/56 56/55/56 58/57/58 177/58/58
f 177/58/58 58/57/58 60/59/60 181/60/60
f 181/60/60 60/59/60 62/61/62 185/62/62
f 185/62/62 62/61/62 64/63/64 189/64/64
f 189/64/64 64/63/64 2/65/2 68/66/2
f 63/67/63 192/68/160 65/69/65 1/70/1
f 192/68/160 191/71/159 66/72/66 65/69/65
f 191/71/159 190/73/158 67/74/67 66/72/66
f 190/73/158 189/64/64 68/66/2 67/74/67
f 61/75/61 188/76/157 192/68/160 63/67/63
f 188/76/157 187/77/156 191/71/159 192/68/160
f 187/77/156 186/78/155 190/73/158 191/71/159
f 186/78/155 185/62/62 189/64/64 190/73/158
f 59/79/59 184/80/154 188/76/157 61/75/61
f 184/80/154 183/81/153 187/77/156 188/76/157
f 183/81/153 182/82/152 186/78/155 187/77/156
f 182/82/152 181/60/60 185/62/62 186/78/155
f 57/83/57 180/84/151 184/80/154 59/79/59
f 180/84/151 179/85/150 183/81/153 184/80/154
f 179/85/150 178/86/149 182/82/152 183/81/153
f 178/86/149 177/58/58 181/60/60 182/82/152
f 55/87/55 176/88/148 180/84/151 57/83/57
f 176/88/148 175/89/147 179/85/150 180/84/151
f 175/89/147 174/90/146 178/86/149 179/85/150
f 174/90/146 173/56/56 177/58/58 178/86/149
f 53/91/53 172/92/145 176/88/148 55/87/55
f 172/92/145 171/93/144 175/89/147 176/88/148
f 171/93/144 170/94/143 174/90/146 175/89/147
f 170/94/143 169/54/54 173/56/56 174/90/146
f 51/95/51 168/96/142 172/92/145 53/91/53
f 168/96/142 167/97/141 171/93/144 172/92/145
f 167/97/141 166/98/140 170/94/143 171/93/144
f 166/98/140 165/52/52 169/54/54 170/94/143
f 49/99/49 164/100/139 168/96/142 51/95/51
f 164/100/139 163/101/138 167/97/141 168/96/142
f 163/101/138 162/102/137 166/98/140 167/97/141
f 162/102/137 161/50/50 165/52/52 166/98/140
f 47/103/47 160/104/136 164/100/139 49/99/49
f 160/104/136 159/105/135 163/101/138 164/100/139
f 159/105/135 158/106/134 162/102/137 163/101/138
f 158/106/134 157/48/48 161/50/50 162/102/137
f 45/107/45 156/108/133 160/104/136 47/103/47
f 156/108/133 155/109/132 159/105/135 160/104/136
f 155/109/132 154/110/131 158/106/134 159/105/135
f 154/110/131 153/46/46 157/48/48 158/106/134
f 43/111/43 152/112/130 156/108/133 45/107/45
f 152/112/130 151/113/129 155/109/132 156/108/133
f 151/113/129 150/114/128 154/110/131 155/109/132
f 150/114/128 149/44/44 153/46/46 154/110/131
f 41/115/41 148/116/127 152/112/130 43/111/43
f 148/116/127 147/117/126 151/113/129 152/112/130
f 147/117/126 146/118/125 150/114/128 151/113/129
f 146/118/125 145/42/42 149/44/44 150/114/128
f 39/119/39 144/120/124 148/116/127 41/115/41
f 144/120/124 143/121/123 147/117/126 148/116/127
f 143/121/123 142/122/122 146/118/125 147/117/126
f 142/122/122 141/40/40 145/42/42 146/118/125
f 37/123/37 140/124/121 144/120/124 39/119/39
f 140/124/121 139/125/120 143/121/123 144/120/124
f 139/125/120 138/126/119 142/122/122 143/121/123
f 138/126/119 137/38/38 141/40/40 142/122/122
f 35/127/35 136/128/118 140/124/121 37/123/37
f 136/128/118 135/129/117 139/125/120 140/124/121
f 135/129/117 134/130/116 138/126/119 139/125/120
f 134/130/116 133/36/36 137/38/38 138/126/119
f 33/131/33 132/132/115 136/128/118 35/127/35
f 132/132/115 131/133/114 135/129/117 136/128/118
f 131/133/114 130/134/113 134/130/116 135/129/117
f 130/134/113 129/34/34 133/36/36 134/130/116
f 31/135/31 128/136/112 132/132/115 33/131/33
f 128/136/112 127/137/111 131/133/114 132/132/115
f 127/137/111 126/138/110 130/134/113 131/133/114
f 126/138/110 125/32/32 129/34/34 130/134/113
f 29/139/29 124/140/109 128/136/112 31/135/31
f 124/140/109 123/141/108 127/137/111 128/136/112
f 123/141/108 122/142/107 126/138/110 127/137/111
f 122/142/107 121/30/30 125/32/32 126/138/110
f 27/143/27 120/144/106 124/140/109 29/139/29
f 120/144/106 119/145/105 123/141/108 124/140/109
f 119/145/105 118/146/104 122/142/107 123/141/108
f 118/146/104 117/28/28 121/30/30 122/142/107
f 25/147/25 116/148/103 120/144/106 27/143/27
f 116/148/103 115/149/102 119/145/105 120/144/106
f 115/149/102 114/150/101 118/146/104 119/145/105
f 114/150/101 113/26/26 117/28/28 118/146/104
f 23/151/23 112/152/100 116/148/103 25/147/25
f 112/152/100 111/153/99 115/149/102 116/148/103
f 111/153/99 110/154/98 114/150/101 115/149/102
f 110/154/98 109/24/24 113/26/26 114/150/101
f 21/155/21 108/156/97 112/152/100 23/151/23
f 108/156/97 107/157/96 111/153/99 112/152/100
f 107/157/96 106/158/95 110/154/98 111/153/99
f 106/158/95 105/22/22 109/24/24 110/154/98
f 19/159/19 104/160/94 108/156/97 21/155/21
f 104/160/94 103/161/93 107/157/96 108/156/97
f 103/161/93 102/162/92 106/158/95 107/157/96
f 102/162/92 101/20/20 105/22/22 106/158/95
f 17/163/17 100/164/91 104/160/94 19/159/19
f 100/164/91 99/165/90 103/161/93 104/160/94
f 99/165/90 98/166/89 102/162/92 103/161/93
f 98/166/89 97/18/18 101/20/20 102/162/92
f 15/167/15 96/168/88 100/164/91 17/163/17
f 96/168/88 95/169/87 99/165/90 100/164/91
f 95/169/87 94/170/86 98/166/89 99/165/90
f 94/170/86 93/16/16 97/18/18 98/166/89
f 13/171/13 92/172/85 96/168/88 15/167/15
f 92/172/85 91/173/84 95/169/87 96/168/88
f 91/173/84 90/174/83 94/170/86 95/169/87
f 90/174/83 89/14/14 93/16/16 94/170/86
f 11/175/11 88/176/82 92/172/85 13/171/13
f 88/176/82 87/177/81 91/173/84 92/172/85
f 87/177/81 86/178/80 90/174/83 91/173/84
f 86/178/80 85/12/12 89/14/14 90/174/83
f 9/179/9 84/180/79 88/176/82 11/175/11
f 84/180/79 83/181/78 87/177/81 88/176/82
f 83/181/78 82/182/77 86/178/80 87/177/81
f 82/182/77 81/10/10 85/12/12 86/178/80
f 7/183/7 80/184/76 84/180/79 9/179/9
f 80/184/76 79/185/75 83/181/78 84/180/79
f 79/185/75 78/186/74 82/182/77 83/181/78
f 78/186/74 77/8/8 81/10/10 82/182/77
f 5/187/5 76/188/73 80/184/76 7/183/7
f 76/188/73 75/189/72 79/185/75 80/184/76
f 75/189/72 74/190/71 78/186/74 79/185/75
f 74/190/71 73/6/6 77/8/8 78/186/74
f 3/191/3 72/192/70 76/188/73 5/187/5
f 72/192/70 71/193/69 75/189/72 76/188/73
f 71/193/69 70/194/68 74/190/71 75/189/72
f 70/194/68 69/4/4 73/6/6 74/190/71
f 1/195/1 65/196/65 72/192/70 3/191/3
f 65/196/65 66/197/66 71/193/69 72/192/70
f 66/197/66 67/198/67 70/194/68 71/193/69
f 67/198/67 68/1/2 69/4/4 70/194/68
