# Blender 5.0.1
# www.blender.org
o Cube
v -0.141239 -0.141239 0.492916
v -0.141239 0.141239 0.492916
v -0.354387 -0.354387 0.008054
v -0.354387 0.354387 0.008054
v 0.141239 -0.141239 0.492916
v 0.141239 0.141239 0.492916
v 0.354387 -0.354387 0.008054
v 0.354387 0.354387 0.008054
v -0.188652 -0.188652 -0.264535
v -0.188652 0.188652 -0.264535
v 0.188652 0.188652 -0.264535
v 0.188652 -0.188652 -0.264535
vn -0.9154 -0.0000 0.4024
vn -0.0000 -0.0000 -1.0000
vn 0.9154 -0.0000 0.4024
vn -0.0000 -0.0000 1.0000
vn -0.0000 -0.9154 0.4024
vn -0.0000 0.9154 0.4024
vn -0.8545 -0.0000 -0.5195
vn -0.0000 0.8545 -0.5195
vn 0.8545 -0.0000 -0.5195
vn -0.0000 -0.8545 -0.5195
vt 0.375000 0.000000
vt 0.625000 0.000000
vt 0.625000 0.250000
vt 0.375000 0.250000
vt 0.405781 0.280781
vt 0.594219 0.280781
vt 0.594219 0.469219
vt 0.405781 0.469219
vt 0.375000 0.500000
vt 0.625000 0.500000
vt 0.625000 0.750000
vt 0.375000 0.750000
vt 0.625000 1.000000
vt 0.375000 1.000000
vt 0.125000 0.500000
vt 0.125000 0.750000
vt 0.875000 0.500000
vt 0.875000 0.750000
s 0
f 1/1/1 2/2/1 4/3/1 3/4/1
f 9/5/2 10/6/2 11/7/2 12/8/2
f 7/9/3 8/10/3 6/11/3 5/12/3
f 5/12/4 6/11/4 2/13/4 1/14/4
f 3/15/5 7/9/5 5/12/5 1/16/5
f 8/10/6 4/17/6 2/18/6 6/11/6
f 3/4/7 4/3/7 10/6/7 9/5/7
f 4/3/8 8/10/8 11/7/8 10/6/8
f 8/10/9 7/9/9 12/8/9 11/7/9
f 7/9/10 3/4/10 9/5/10 12/8/10
